<svg width="250" height="249" viewBox="0 0 250 249" fill="none" xmlns="http://www.w3.org/2000/svg">
<path d="M244.655 126.405H173.005C173.005 126.405 180.113 106.998 191.048 106.998C201.984 106.998 205.407 120.392 205.407 120.392C205.407 120.392 212.788 113.118 218.849 113.118C224.909 113.118 230.159 122.732 230.159 122.732C230.159 122.732 238.743 117.541 244.655 126.405Z" fill="#EBEBEB"/>
<path d="M159.557 25.4069H126.065C126.065 25.4069 133.548 14.5547 139.448 14.5547C145.347 14.5547 147.085 21.7935 147.085 21.7935C147.085 21.7935 151.252 18.4241 155.098 19.0254C158.944 19.6266 159.557 25.4069 159.557 25.4069Z" fill="#EBEBEB"/>
<path d="M223.224 48.0523H189.727C189.727 48.0523 197.209 37.2061 203.103 37.2061C208.996 37.2061 210.723 44.4389 210.723 44.4389C210.723 44.4389 214.89 41.0636 218.735 41.6648C222.581 42.2661 223.224 48.0523 223.224 48.0523Z" fill="#EBEBEB"/>
<path d="M176.1 102.236H142.608C142.608 102.236 150.091 91.3896 155.985 91.3896C161.878 91.3896 163.622 98.6225 163.622 98.6225C163.622 98.6225 167.789 95.2472 171.641 95.8484C175.492 96.4496 176.1 102.236 176.1 102.236Z" fill="#EBEBEB"/>
<path d="M38.8191 125.375H5.3457C5.3457 125.375 12.8107 114.564 18.7041 114.564C24.5975 114.564 26.3477 121.791 26.3477 121.791C26.3477 121.791 30.5148 118.416 34.3604 119.023C38.206 119.63 38.8191 125.375 38.8191 125.375Z" fill="#EBEBEB"/>
<path d="M83.2764 58.172H18.0381C18.0381 58.172 26.9675 38.2296 36.5279 36.9795C46.0884 35.7294 50.6543 51.8023 50.6543 51.8023C50.6543 51.8023 56.8215 46.1232 61.6672 46.1232C66.5129 46.1232 70.2335 53.6001 70.2335 53.6001C70.2335 53.6001 79.9487 48.4865 83.2764 58.172Z" fill="#EBEBEB"/>
<path d="M197.168 141.114H177.428V244.606H197.168V141.114Z" fill="#DBDBDB"/>
<path d="M184.327 144.478H180.487V148.43H184.327V144.478Z" fill="#EBEBEB"/>
<path d="M189.238 144.478H185.398V148.43H189.238V144.478Z" fill="#EBEBEB"/>
<path d="M184.327 151.181H180.487V155.133H184.327V151.181Z" fill="#EBEBEB"/>
<path d="M189.238 151.181H185.398V155.133H189.238V151.181Z" fill="#EBEBEB"/>
<path d="M184.327 157.89H180.487V161.842H184.327V157.89Z" fill="#EBEBEB"/>
<path d="M189.238 157.89H185.398V161.842H189.238V157.89Z" fill="#EBEBEB"/>
<path d="M184.327 164.599H180.487V168.551H184.327V164.599Z" fill="#EBEBEB"/>
<path d="M189.238 164.599H185.398V168.551H189.238V164.599Z" fill="#EBEBEB"/>
<path d="M184.327 171.308H180.487V175.26H184.327V171.308Z" fill="#EBEBEB"/>
<path d="M189.238 171.308H185.398V175.26H189.238V171.308Z" fill="#EBEBEB"/>
<path d="M184.327 178.017H180.487V181.969H184.327V178.017Z" fill="#EBEBEB"/>
<path d="M189.238 178.017H185.398V181.969H189.238V178.017Z" fill="#EBEBEB"/>
<path d="M184.327 184.726H180.487V188.678H184.327V184.726Z" fill="#EBEBEB"/>
<path d="M189.238 184.726H185.398V188.678H189.238V184.726Z" fill="#EBEBEB"/>
<path d="M184.327 191.435H180.487V195.387H184.327V191.435Z" fill="#EBEBEB"/>
<path d="M189.238 191.435H185.398V195.387H189.238V191.435Z" fill="#EBEBEB"/>
<path d="M184.327 198.144H180.487V202.096H184.327V198.144Z" fill="#EBEBEB"/>
<path d="M189.238 198.144H185.398V202.096H189.238V198.144Z" fill="#EBEBEB"/>
<path d="M184.327 204.853H180.487V208.805H184.327V204.853Z" fill="#EBEBEB"/>
<path d="M189.238 204.853H185.398V208.805H189.238V204.853Z" fill="#EBEBEB"/>
<path d="M184.327 211.562H180.487V215.514H184.327V211.562Z" fill="#EBEBEB"/>
<path d="M189.238 211.562H185.398V215.514H189.238V211.562Z" fill="#EBEBEB"/>
<path d="M184.327 218.271H180.487V222.223H184.327V218.271Z" fill="#EBEBEB"/>
<path d="M189.238 218.271H185.398V222.223H189.238V218.271Z" fill="#EBEBEB"/>
<path d="M184.327 224.979H180.487V228.932H184.327V224.979Z" fill="#EBEBEB"/>
<path d="M189.238 224.979H185.398V228.932H189.238V224.979Z" fill="#EBEBEB"/>
<path d="M184.327 231.688H180.487V235.641H184.327V231.688Z" fill="#EBEBEB"/>
<path d="M190.262 235.642H194.102V231.689H190.262V235.642Z" fill="#EBEBEB"/>
<path d="M190.262 228.933H194.102V224.98H190.262V228.933Z" fill="#EBEBEB"/>
<path d="M190.262 222.224H194.102V218.271H190.262V222.224Z" fill="#EBEBEB"/>
<path d="M190.262 215.515H194.102V211.562H190.262V215.515Z" fill="#EBEBEB"/>
<path d="M190.262 208.806H194.102V204.853H190.262V208.806Z" fill="#EBEBEB"/>
<path d="M190.262 202.103H194.102V198.15H190.262V202.103Z" fill="#EBEBEB"/>
<path d="M190.262 195.394H194.102V191.441H190.262V195.394Z" fill="#EBEBEB"/>
<path d="M190.262 188.685H194.102V184.732H190.262V188.685Z" fill="#EBEBEB"/>
<path d="M190.262 181.976H194.102V178.023H190.262V181.976Z" fill="#EBEBEB"/>
<path d="M190.262 175.267H194.102V171.314H190.262V175.267Z" fill="#EBEBEB"/>
<path d="M190.262 168.558H194.102V164.605H190.262V168.558Z" fill="#EBEBEB"/>
<path d="M190.262 161.849H194.102V157.896H190.262V161.849Z" fill="#EBEBEB"/>
<path d="M190.262 155.14H194.102V151.187H190.262V155.14Z" fill="#EBEBEB"/>
<path d="M190.262 148.425H194.102V144.472H190.262V148.425Z" fill="#EBEBEB"/>
<path d="M189.238 231.688H185.398V235.641H189.238V231.688Z" fill="#EBEBEB"/>
<path d="M212.734 141.114H197.167V244.606H212.734V141.114Z" fill="#A6A6A6"/>
<path d="M207.96 235.642H211.127V231.689H207.96V235.642Z" fill="#C7C7C7"/>
<path d="M203.906 235.642H207.073V231.689H203.906V235.642Z" fill="#C7C7C7"/>
<path d="M207.96 228.933H211.127V224.98H207.96V228.933Z" fill="#C7C7C7"/>
<path d="M203.906 228.933H207.073V224.98H203.906V228.933Z" fill="#C7C7C7"/>
<path d="M207.96 222.224H211.127V218.271H207.96V222.224Z" fill="#C7C7C7"/>
<path d="M203.906 222.224H207.073V218.271H203.906V222.224Z" fill="#C7C7C7"/>
<path d="M207.96 215.515H211.127V211.562H207.96V215.515Z" fill="#C7C7C7"/>
<path d="M203.906 215.515H207.073V211.562H203.906V215.515Z" fill="#C7C7C7"/>
<path d="M207.96 208.806H211.127V204.853H207.96V208.806Z" fill="#C7C7C7"/>
<path d="M203.906 208.806H207.073V204.853H203.906V208.806Z" fill="#C7C7C7"/>
<path d="M207.96 202.103H211.127V198.15H207.96V202.103Z" fill="#C7C7C7"/>
<path d="M203.906 202.103H207.073V198.15H203.906V202.103Z" fill="#C7C7C7"/>
<path d="M207.96 195.394H211.127V191.441H207.96V195.394Z" fill="#C7C7C7"/>
<path d="M203.906 195.394H207.073V191.441H203.906V195.394Z" fill="#C7C7C7"/>
<path d="M207.96 188.685H211.127V184.732H207.96V188.685Z" fill="#C7C7C7"/>
<path d="M203.906 188.685H207.073V184.732H203.906V188.685Z" fill="#C7C7C7"/>
<path d="M207.96 181.976H211.127V178.023H207.96V181.976Z" fill="#C7C7C7"/>
<path d="M203.906 181.976H207.073V178.023H203.906V181.976Z" fill="#C7C7C7"/>
<path d="M207.96 175.267H211.127V171.314H207.96V175.267Z" fill="#C7C7C7"/>
<path d="M203.906 175.267H207.073V171.314H203.906V175.267Z" fill="#C7C7C7"/>
<path d="M207.96 168.558H211.127V164.605H207.96V168.558Z" fill="#C7C7C7"/>
<path d="M203.906 168.558H207.073V164.605H203.906V168.558Z" fill="#C7C7C7"/>
<path d="M207.96 161.849H211.127V157.896H207.96V161.849Z" fill="#C7C7C7"/>
<path d="M203.906 161.849H207.073V157.896H203.906V161.849Z" fill="#C7C7C7"/>
<path d="M207.96 155.14H211.127V151.187H207.96V155.14Z" fill="#C7C7C7"/>
<path d="M203.906 155.14H207.073V151.187H203.906V155.14Z" fill="#C7C7C7"/>
<path d="M207.96 148.425H211.127V144.472H207.96V148.425Z" fill="#C7C7C7"/>
<path d="M203.056 144.478H199.889V148.43H203.056V144.478Z" fill="#C7C7C7"/>
<path d="M203.056 151.181H199.889V155.133H203.056V151.181Z" fill="#C7C7C7"/>
<path d="M203.056 157.89H199.889V161.842H203.056V157.89Z" fill="#C7C7C7"/>
<path d="M203.056 164.599H199.889V168.551H203.056V164.599Z" fill="#C7C7C7"/>
<path d="M203.056 171.308H199.889V175.26H203.056V171.308Z" fill="#C7C7C7"/>
<path d="M203.056 178.017H199.889V181.969H203.056V178.017Z" fill="#C7C7C7"/>
<path d="M203.056 184.726H199.889V188.678H203.056V184.726Z" fill="#C7C7C7"/>
<path d="M203.056 191.435H199.889V195.387H203.056V191.435Z" fill="#C7C7C7"/>
<path d="M203.056 198.144H199.889V202.096H203.056V198.144Z" fill="#C7C7C7"/>
<path d="M203.056 204.853H199.889V208.805H203.056V204.853Z" fill="#C7C7C7"/>
<path d="M203.056 211.562H199.889V215.514H203.056V211.562Z" fill="#C7C7C7"/>
<path d="M203.056 218.271H199.889V222.223H203.056V218.271Z" fill="#C7C7C7"/>
<path d="M203.056 224.979H199.889V228.932H203.056V224.979Z" fill="#C7C7C7"/>
<path d="M203.056 231.688H199.889V235.641H203.056V231.688Z" fill="#C7C7C7"/>
<path d="M203.906 148.425H207.073V144.472H203.906V148.425Z" fill="#C7C7C7"/>
<path d="M56.994 135.53H33.6406V244.6H56.994V135.53Z" fill="#EBEBEB"/>
<path d="M56.9932 133.144H33.0742V135.531H56.9932V133.144Z" fill="#C7C7C7"/>
<path d="M38.1114 139.055H35.748V244.606H38.1114V139.055Z" fill="white"/>
<path d="M42.3077 139.055H39.9443V244.606H42.3077V139.055Z" fill="white"/>
<path d="M46.4981 139.055H44.1348V244.606H46.4981V139.055Z" fill="white"/>
<path d="M50.6954 139.055H48.3262V244.606H50.6954V139.055Z" fill="white"/>
<path d="M54.8809 139.055H52.5176V244.606H54.8809V139.055Z" fill="white"/>
<path d="M38.1114 142.073H35.748V146.788H38.1114V142.073Z" fill="#EBEBEB"/>
<path d="M42.3077 142.073H39.9443V146.788H42.3077V142.073Z" fill="#EBEBEB"/>
<path d="M46.4981 142.073H44.1348V146.788H46.4981V142.073Z" fill="#EBEBEB"/>
<path d="M50.6954 142.073H48.3262V146.788H50.6954V142.073Z" fill="#EBEBEB"/>
<path d="M54.8809 142.073H52.5176V146.788H54.8809V142.073Z" fill="#EBEBEB"/>
<path d="M38.1114 149.729H35.748V154.443H38.1114V149.729Z" fill="#EBEBEB"/>
<path d="M42.3077 149.729H39.9443V154.443H42.3077V149.729Z" fill="#EBEBEB"/>
<path d="M46.4981 149.729H44.1348V154.443H46.4981V149.729Z" fill="#EBEBEB"/>
<path d="M50.6954 149.729H48.3262V154.443H50.6954V149.729Z" fill="#EBEBEB"/>
<path d="M54.8809 149.729H52.5176V154.443H54.8809V149.729Z" fill="#EBEBEB"/>
<path d="M38.1114 157.39H35.748V162.104H38.1114V157.39Z" fill="#EBEBEB"/>
<path d="M42.3077 157.39H39.9443V162.104H42.3077V157.39Z" fill="#EBEBEB"/>
<path d="M46.4981 157.39H44.1348V162.104H46.4981V157.39Z" fill="#EBEBEB"/>
<path d="M50.6954 157.39H48.3262V162.104H50.6954V157.39Z" fill="#EBEBEB"/>
<path d="M54.8809 157.39H52.5176V162.104H54.8809V157.39Z" fill="#EBEBEB"/>
<path d="M38.1114 165.052H35.748V169.767H38.1114V165.052Z" fill="#EBEBEB"/>
<path d="M42.3077 165.052H39.9443V169.767H42.3077V165.052Z" fill="#EBEBEB"/>
<path d="M46.4981 165.052H44.1348V169.767H46.4981V165.052Z" fill="#EBEBEB"/>
<path d="M50.6954 165.052H48.3262V169.767H50.6954V165.052Z" fill="#EBEBEB"/>
<path d="M54.8809 165.052H52.5176V169.767H54.8809V165.052Z" fill="#EBEBEB"/>
<path d="M38.1114 172.713H35.748V177.428H38.1114V172.713Z" fill="#EBEBEB"/>
<path d="M42.3077 172.713H39.9443V177.428H42.3077V172.713Z" fill="#EBEBEB"/>
<path d="M46.4981 172.713H44.1348V177.428H46.4981V172.713Z" fill="#EBEBEB"/>
<path d="M50.6954 172.713H48.3262V177.428H50.6954V172.713Z" fill="#EBEBEB"/>
<path d="M54.8809 172.713H52.5176V177.428H54.8809V172.713Z" fill="#EBEBEB"/>
<path d="M38.1114 180.374H35.748V185.089H38.1114V180.374Z" fill="#EBEBEB"/>
<path d="M42.3077 180.374H39.9443V185.089H42.3077V180.374Z" fill="#EBEBEB"/>
<path d="M46.4981 180.374H44.1348V185.089H46.4981V180.374Z" fill="#EBEBEB"/>
<path d="M50.6954 180.374H48.3262V185.089H50.6954V180.374Z" fill="#EBEBEB"/>
<path d="M54.8809 180.374H52.5176V185.089H54.8809V180.374Z" fill="#EBEBEB"/>
<path d="M38.1114 188.035H35.748V192.75H38.1114V188.035Z" fill="#EBEBEB"/>
<path d="M42.3077 188.035H39.9443V192.75H42.3077V188.035Z" fill="#EBEBEB"/>
<path d="M46.4981 188.035H44.1348V192.75H46.4981V188.035Z" fill="#EBEBEB"/>
<path d="M50.6954 188.035H48.3262V192.75H50.6954V188.035Z" fill="#EBEBEB"/>
<path d="M54.8809 188.035H52.5176V192.75H54.8809V188.035Z" fill="#EBEBEB"/>
<path d="M38.1114 195.697H35.748V200.412H38.1114V195.697Z" fill="#EBEBEB"/>
<path d="M42.3077 195.697H39.9443V200.412H42.3077V195.697Z" fill="#EBEBEB"/>
<path d="M46.4981 195.697H44.1348V200.412H46.4981V195.697Z" fill="#EBEBEB"/>
<path d="M50.6954 195.697H48.3262V200.412H50.6954V195.697Z" fill="#EBEBEB"/>
<path d="M54.8809 195.697H52.5176V200.412H54.8809V195.697Z" fill="#EBEBEB"/>
<path d="M38.1114 203.358H35.748V208.073H38.1114V203.358Z" fill="#EBEBEB"/>
<path d="M42.3077 203.358H39.9443V208.073H42.3077V203.358Z" fill="#EBEBEB"/>
<path d="M46.4981 203.358H44.1348V208.073H46.4981V203.358Z" fill="#EBEBEB"/>
<path d="M50.6954 203.358H48.3262V208.073H50.6954V203.358Z" fill="#EBEBEB"/>
<path d="M54.8809 203.358H52.5176V208.073H54.8809V203.358Z" fill="#EBEBEB"/>
<path d="M38.1114 211.02H35.748V215.734H38.1114V211.02Z" fill="#EBEBEB"/>
<path d="M42.3077 211.02H39.9443V215.734H42.3077V211.02Z" fill="#EBEBEB"/>
<path d="M46.4981 211.02H44.1348V215.734H46.4981V211.02Z" fill="#EBEBEB"/>
<path d="M50.6954 211.02H48.3262V215.734H50.6954V211.02Z" fill="#EBEBEB"/>
<path d="M54.8809 211.02H52.5176V215.734H54.8809V211.02Z" fill="#EBEBEB"/>
<path d="M38.1114 218.682H35.748V223.396H38.1114V218.682Z" fill="#EBEBEB"/>
<path d="M42.3077 218.682H39.9443V223.396H42.3077V218.682Z" fill="#EBEBEB"/>
<path d="M46.4981 218.682H44.1348V223.396H46.4981V218.682Z" fill="#EBEBEB"/>
<path d="M50.6954 218.682H48.3262V223.396H50.6954V218.682Z" fill="#EBEBEB"/>
<path d="M54.8809 218.682H52.5176V223.396H54.8809V218.682Z" fill="#EBEBEB"/>
<path d="M38.1114 226.343H35.748V231.058H38.1114V226.343Z" fill="#EBEBEB"/>
<path d="M42.3077 226.343H39.9443V231.058H42.3077V226.343Z" fill="#EBEBEB"/>
<path d="M46.4981 226.343H44.1348V231.058H46.4981V226.343Z" fill="#EBEBEB"/>
<path d="M50.6954 226.343H48.3262V231.058H50.6954V226.343Z" fill="#EBEBEB"/>
<path d="M54.8809 226.343H52.5176V231.058H54.8809V226.343Z" fill="#EBEBEB"/>
<path d="M38.1114 234.004H35.748V238.719H38.1114V234.004Z" fill="#EBEBEB"/>
<path d="M42.3077 234.004H39.9443V238.719H42.3077V234.004Z" fill="#EBEBEB"/>
<path d="M46.4981 234.004H44.1348V238.719H46.4981V234.004Z" fill="#EBEBEB"/>
<path d="M50.6954 234.004H48.3262V238.719H50.6954V234.004Z" fill="#EBEBEB"/>
<path d="M54.8809 234.004H52.5176V238.719H54.8809V234.004Z" fill="#EBEBEB"/>
<path d="M38.1114 241.666H35.748V244.607H38.1114V241.666Z" fill="#EBEBEB"/>
<path d="M42.3077 241.666H39.9443V244.607H42.3077V241.666Z" fill="#EBEBEB"/>
<path d="M46.4981 241.666H44.1348V244.607H46.4981V241.666Z" fill="#EBEBEB"/>
<path d="M50.6954 241.666H48.3262V244.607H50.6954V241.666Z" fill="#EBEBEB"/>
<path d="M54.8809 241.666H52.5176V244.607H54.8809V241.666Z" fill="#EBEBEB"/>
<path d="M71.9886 135.53H56.9932V244.6H71.9886V135.53Z" fill="#DBDBDB"/>
<path d="M72.6375 133.144H56.9932V135.531H72.6375V133.144Z" fill="#C7C7C7"/>
<path d="M61.4767 139.055H59.1074V244.606H61.4767V139.055Z" fill="#C7C7C7"/>
<path d="M65.6612 139.055H63.2979V244.606H65.6612V139.055Z" fill="#C7C7C7"/>
<path d="M69.8516 139.055H67.4883V244.606H69.8516V139.055Z" fill="#C7C7C7"/>
<path d="M61.4767 142.073H59.1074V146.788H61.4767V142.073Z" fill="#DBDBDB"/>
<path d="M65.6612 142.073H63.2979V146.788H65.6612V142.073Z" fill="#DBDBDB"/>
<path d="M69.8516 142.073H67.4883V146.788H69.8516V142.073Z" fill="#DBDBDB"/>
<path d="M61.4767 149.729H59.1074V154.443H61.4767V149.729Z" fill="#DBDBDB"/>
<path d="M65.6612 149.729H63.2979V154.443H65.6612V149.729Z" fill="#DBDBDB"/>
<path d="M69.8516 149.729H67.4883V154.443H69.8516V149.729Z" fill="#DBDBDB"/>
<path d="M61.4767 157.39H59.1074V162.104H61.4767V157.39Z" fill="#DBDBDB"/>
<path d="M65.6612 157.39H63.2979V162.104H65.6612V157.39Z" fill="#DBDBDB"/>
<path d="M69.8516 157.39H67.4883V162.104H69.8516V157.39Z" fill="#DBDBDB"/>
<path d="M61.4767 165.052H59.1074V169.767H61.4767V165.052Z" fill="#DBDBDB"/>
<path d="M65.6612 165.052H63.2979V169.767H65.6612V165.052Z" fill="#DBDBDB"/>
<path d="M69.8516 165.052H67.4883V169.767H69.8516V165.052Z" fill="#DBDBDB"/>
<path d="M61.4767 172.713H59.1074V177.428H61.4767V172.713Z" fill="#DBDBDB"/>
<path d="M65.6612 172.713H63.2979V177.428H65.6612V172.713Z" fill="#DBDBDB"/>
<path d="M69.8516 172.713H67.4883V177.428H69.8516V172.713Z" fill="#DBDBDB"/>
<path d="M61.4767 180.374H59.1074V185.089H61.4767V180.374Z" fill="#DBDBDB"/>
<path d="M65.6612 180.374H63.2979V185.089H65.6612V180.374Z" fill="#DBDBDB"/>
<path d="M69.8516 180.374H67.4883V185.089H69.8516V180.374Z" fill="#DBDBDB"/>
<path d="M61.4767 188.035H59.1074V192.75H61.4767V188.035Z" fill="#DBDBDB"/>
<path d="M65.6612 188.035H63.2979V192.75H65.6612V188.035Z" fill="#DBDBDB"/>
<path d="M69.8516 188.035H67.4883V192.75H69.8516V188.035Z" fill="#DBDBDB"/>
<path d="M61.4767 195.697H59.1074V200.412H61.4767V195.697Z" fill="#DBDBDB"/>
<path d="M65.6612 195.697H63.2979V200.412H65.6612V195.697Z" fill="#DBDBDB"/>
<path d="M69.8516 195.697H67.4883V200.412H69.8516V195.697Z" fill="#DBDBDB"/>
<path d="M61.4767 203.358H59.1074V208.073H61.4767V203.358Z" fill="#DBDBDB"/>
<path d="M65.6612 203.358H63.2979V208.073H65.6612V203.358Z" fill="#DBDBDB"/>
<path d="M69.8516 203.358H67.4883V208.073H69.8516V203.358Z" fill="#DBDBDB"/>
<path d="M61.4767 211.02H59.1074V215.734H61.4767V211.02Z" fill="#DBDBDB"/>
<path d="M65.6612 211.02H63.2979V215.734H65.6612V211.02Z" fill="#DBDBDB"/>
<path d="M69.8516 211.02H67.4883V215.734H69.8516V211.02Z" fill="#DBDBDB"/>
<path d="M61.4767 218.682H59.1074V223.396H61.4767V218.682Z" fill="#DBDBDB"/>
<path d="M65.6612 218.682H63.2979V223.396H65.6612V218.682Z" fill="#DBDBDB"/>
<path d="M69.8516 218.682H67.4883V223.396H69.8516V218.682Z" fill="#DBDBDB"/>
<path d="M61.4767 226.343H59.1074V231.058H61.4767V226.343Z" fill="#DBDBDB"/>
<path d="M65.6612 226.343H63.2979V231.058H65.6612V226.343Z" fill="#DBDBDB"/>
<path d="M69.8516 226.343H67.4883V231.058H69.8516V226.343Z" fill="#DBDBDB"/>
<path d="M61.4767 234.004H59.1074V238.719H61.4767V234.004Z" fill="#DBDBDB"/>
<path d="M65.6612 234.004H63.2979V238.719H65.6612V234.004Z" fill="#DBDBDB"/>
<path d="M69.8516 234.004H67.4883V238.719H69.8516V234.004Z" fill="#DBDBDB"/>
<path d="M61.4767 241.666H59.1074V244.607H61.4767V241.666Z" fill="#DBDBDB"/>
<path d="M65.6612 241.666H63.2979V244.607H65.6612V241.666Z" fill="#DBDBDB"/>
<path d="M69.8516 241.666H67.4883V244.607H69.8516V241.666Z" fill="#DBDBDB"/>
<path d="M27.5736 175.618H4.31543V244.607H27.5736V175.618Z" fill="#EBEBEB"/>
<path d="M27.5743 169.766H7.62598V175.617H27.5743V169.766Z" fill="#C7C7C7"/>
<path d="M25.0256 178.672H6.86914V244.607H25.0256V178.672Z" fill="#DBDBDB"/>
<path d="M25.0256 184.964H6.86914V186.524H25.0256V184.964Z" fill="white"/>
<path d="M25.0256 191.417H6.86914V192.977H25.0256V191.417Z" fill="white"/>
<path d="M25.0256 197.87H6.86914V199.43H25.0256V197.87Z" fill="white"/>
<path d="M25.0256 204.323H6.86914V205.883H25.0256V204.323Z" fill="white"/>
<path d="M25.0256 210.776H6.86914V212.336H25.0256V210.776Z" fill="white"/>
<path d="M25.0256 217.229H6.86914V218.788H25.0256V217.229Z" fill="white"/>
<path d="M25.0256 223.682H6.86914V225.241H25.0256V223.682Z" fill="white"/>
<path d="M25.0256 230.135H6.86914V231.694H25.0256V230.135Z" fill="white"/>
<path d="M25.0256 236.594H6.86914V238.153H25.0256V236.594Z" fill="white"/>
<path d="M25.0256 243.047H6.86914V244.607H25.0256V243.047Z" fill="white"/>
<path d="M42.1411 175.618H27.5742V244.607H42.1411V175.618Z" fill="#DBDBDB"/>
<path d="M39.9564 169.766H27.5742V175.617H39.9564V169.766Z" fill="#A6A6A6"/>
<path d="M40.7776 178.672H29.5801V244.607H40.7776V178.672Z" fill="#C7C7C7"/>
<path d="M40.7776 184.964H29.5801V186.524H40.7776V184.964Z" fill="white"/>
<path d="M40.7776 191.417H29.5801V192.977H40.7776V191.417Z" fill="white"/>
<path d="M40.7776 197.87H29.5801V199.43H40.7776V197.87Z" fill="white"/>
<path d="M40.7776 204.323H29.5801V205.883H40.7776V204.323Z" fill="white"/>
<path d="M40.7776 210.776H29.5801V212.336H40.7776V210.776Z" fill="white"/>
<path d="M40.7776 217.229H29.5801V218.788H40.7776V217.229Z" fill="white"/>
<path d="M40.7776 223.682H29.5801V225.241H40.7776V223.682Z" fill="white"/>
<path d="M40.7776 230.135H29.5801V231.694H40.7776V230.135Z" fill="white"/>
<path d="M40.7776 236.594H29.5801V238.153H40.7776V236.594Z" fill="white"/>
<path d="M40.7776 243.047H29.5801V244.607H40.7776V243.047Z" fill="white"/>
<path d="M92.7523 204.216H74.7744V244.601H92.7523V204.216Z" fill="#DBDBDB"/>
<path d="M80.7814 207.71H77.6025V210.186H80.7814V207.71Z" fill="#C7C7C7"/>
<path d="M80.7814 212.996H77.6025V215.473H80.7814V212.996Z" fill="#C7C7C7"/>
<path d="M80.7814 218.282H77.6025V220.759H80.7814V218.282Z" fill="#C7C7C7"/>
<path d="M80.7814 223.568H77.6025V226.045H80.7814V223.568Z" fill="#C7C7C7"/>
<path d="M80.7814 228.855H77.6025V231.332H80.7814V228.855Z" fill="#C7C7C7"/>
<path d="M80.7814 234.136H77.6025V236.612H80.7814V234.136Z" fill="#C7C7C7"/>
<path d="M80.7814 239.422H77.6025V241.898H80.7814V239.422Z" fill="#C7C7C7"/>
<path d="M85.3586 207.71H82.1797V210.186H85.3586V207.71Z" fill="#C7C7C7"/>
<path d="M85.3586 212.996H82.1797V215.473H85.3586V212.996Z" fill="#C7C7C7"/>
<path d="M85.3586 218.282H82.1797V220.759H85.3586V218.282Z" fill="#C7C7C7"/>
<path d="M85.3586 223.568H82.1797V226.045H85.3586V223.568Z" fill="#C7C7C7"/>
<path d="M85.3586 228.855H82.1797V231.332H85.3586V228.855Z" fill="#C7C7C7"/>
<path d="M85.3586 234.136H82.1797V236.612H85.3586V234.136Z" fill="#C7C7C7"/>
<path d="M85.3586 239.422H82.1797V241.898H85.3586V239.422Z" fill="#C7C7C7"/>
<path d="M89.925 207.71H86.7461V210.186H89.925V207.71Z" fill="#C7C7C7"/>
<path d="M89.925 212.996H86.7461V215.473H89.925V212.996Z" fill="#C7C7C7"/>
<path d="M89.925 218.282H86.7461V220.759H89.925V218.282Z" fill="#C7C7C7"/>
<path d="M89.925 223.568H86.7461V226.045H89.925V223.568Z" fill="#C7C7C7"/>
<path d="M89.925 228.855H86.7461V231.332H89.925V228.855Z" fill="#C7C7C7"/>
<path d="M89.925 234.136H86.7461V236.612H89.925V234.136Z" fill="#C7C7C7"/>
<path d="M89.925 239.422H86.7461V241.898H89.925V239.422Z" fill="#C7C7C7"/>
<path d="M105.367 204.216H92.7529V244.601H105.367V204.216Z" fill="#A6A6A6"/>
<path d="M101.486 241.499H104.075V239.023H101.486V241.499Z" fill="#C7C7C7"/>
<path d="M101.486 236.219H104.075V233.742H101.486V236.219Z" fill="#C7C7C7"/>
<path d="M101.486 230.933H104.075V228.456H101.486V230.933Z" fill="#C7C7C7"/>
<path d="M101.486 225.652H104.075V223.176H101.486V225.652Z" fill="#C7C7C7"/>
<path d="M101.486 220.36H104.075V217.884H101.486V220.36Z" fill="#C7C7C7"/>
<path d="M101.486 215.074H104.075V212.598H101.486V215.074Z" fill="#C7C7C7"/>
<path d="M101.486 209.794H104.075V207.318H101.486V209.794Z" fill="#C7C7C7"/>
<path d="M97.7601 241.499H100.35V239.023H97.7601V241.499Z" fill="#C7C7C7"/>
<path d="M97.7601 236.219H100.35V233.742H97.7601V236.219Z" fill="#C7C7C7"/>
<path d="M97.7601 230.933H100.35V228.456H97.7601V230.933Z" fill="#C7C7C7"/>
<path d="M97.7601 225.652H100.35V223.176H97.7601V225.652Z" fill="#C7C7C7"/>
<path d="M97.7601 220.36H100.35V217.884H97.7601V220.36Z" fill="#C7C7C7"/>
<path d="M97.7601 215.074H100.35V212.598H97.7601V215.074Z" fill="#C7C7C7"/>
<path d="M97.7601 209.794H100.35V207.318H97.7601V209.794Z" fill="#C7C7C7"/>
<path d="M94.0452 241.499H96.6348V239.023H94.0452V241.499Z" fill="#C7C7C7"/>
<path d="M94.0452 236.219H96.6348V233.742H94.0452V236.219Z" fill="#C7C7C7"/>
<path d="M94.0452 230.933H96.6348V228.456H94.0452V230.933Z" fill="#C7C7C7"/>
<path d="M94.0452 225.652H96.6348V223.176H94.0452V225.652Z" fill="#C7C7C7"/>
<path d="M94.0452 220.36H96.6348V217.884H94.0452V220.36Z" fill="#C7C7C7"/>
<path d="M94.0452 215.074H96.6348V212.598H94.0452V215.074Z" fill="#C7C7C7"/>
<path d="M94.0452 209.794H96.6348V207.318H94.0452V209.794Z" fill="#C7C7C7"/>
<path d="M226.504 157.89H214.086V172.564H226.504V157.89Z" fill="#DBDBDB"/>
<path d="M234.386 157.89H226.51V173.099H234.386V157.89Z" fill="#C7C7C7"/>
<path d="M234.909 164.373H227.093V173.106H234.909V164.373Z" fill="#DBDBDB"/>
<path d="M239.785 164.373H234.909V173.106H239.785V164.373Z" fill="#C7C7C7"/>
<path d="M229.409 171.611H209.324V244.6H229.409V171.611Z" fill="#EBEBEB"/>
<path d="M217.937 174.749H211.621V177.327H217.937V174.749Z" fill="white"/>
<path d="M226.015 174.749H219.699V177.327H226.015V174.749Z" fill="white"/>
<path d="M217.937 179.13H211.621V181.708H217.937V179.13Z" fill="white"/>
<path d="M226.015 179.13H219.699V181.708H226.015V179.13Z" fill="white"/>
<path d="M217.937 183.512H211.621V186.089H217.937V183.512Z" fill="white"/>
<path d="M226.015 183.512H219.699V186.089H226.015V183.512Z" fill="white"/>
<path d="M217.937 187.893H211.621V190.47H217.937V187.893Z" fill="white"/>
<path d="M226.015 187.893H219.699V190.47H226.015V187.893Z" fill="white"/>
<path d="M217.937 192.274H211.621V194.852H217.937V192.274Z" fill="white"/>
<path d="M226.015 192.274H219.699V194.852H226.015V192.274Z" fill="white"/>
<path d="M217.937 196.655H211.621V199.233H217.937V196.655Z" fill="white"/>
<path d="M226.015 196.655H219.699V199.233H226.015V196.655Z" fill="white"/>
<path d="M217.937 201.037H211.621V203.615H217.937V201.037Z" fill="white"/>
<path d="M226.015 201.037H219.699V203.615H226.015V201.037Z" fill="white"/>
<path d="M217.937 205.418H211.621V207.996H217.937V205.418Z" fill="white"/>
<path d="M226.015 205.418H219.699V207.996H226.015V205.418Z" fill="white"/>
<path d="M217.937 209.8H211.621V212.377H217.937V209.8Z" fill="white"/>
<path d="M226.015 209.8H219.699V212.377H226.015V209.8Z" fill="white"/>
<path d="M217.937 214.181H211.621V216.758H217.937V214.181Z" fill="white"/>
<path d="M226.015 214.181H219.699V216.758H226.015V214.181Z" fill="white"/>
<path d="M217.937 218.562H211.621V221.14H217.937V218.562Z" fill="white"/>
<path d="M226.015 218.562H219.699V221.14H226.015V218.562Z" fill="white"/>
<path d="M217.937 222.943H211.621V225.527H217.937V222.943Z" fill="white"/>
<path d="M226.015 222.943H219.699V225.527H226.015V222.943Z" fill="white"/>
<path d="M217.937 227.325H211.621V229.903H217.937V227.325Z" fill="white"/>
<path d="M226.015 227.325H219.699V229.903H226.015V227.325Z" fill="white"/>
<path d="M217.937 231.706H211.621V234.284H217.937V231.706Z" fill="white"/>
<path d="M226.015 231.706H219.699V234.284H226.015V231.706Z" fill="white"/>
<path d="M245.684 171.611H229.408V244.6H245.684V171.611Z" fill="#C7C7C7"/>
<path d="M238.868 234.284H244.053V231.707H238.868V234.284Z" fill="#EBEBEB"/>
<path d="M232.23 234.284H237.415V231.707H232.23V234.284Z" fill="#EBEBEB"/>
<path d="M238.868 229.902H244.053V227.325H238.868V229.902Z" fill="#EBEBEB"/>
<path d="M232.23 229.902H237.415V227.325H232.23V229.902Z" fill="#EBEBEB"/>
<path d="M238.868 225.521H244.053V222.938H238.868V225.521Z" fill="#EBEBEB"/>
<path d="M232.23 225.521H237.415V222.938H232.23V225.521Z" fill="#EBEBEB"/>
<path d="M238.868 221.14H244.053V218.562H238.868V221.14Z" fill="#EBEBEB"/>
<path d="M232.23 221.14H237.415V218.562H232.23V221.14Z" fill="#EBEBEB"/>
<path d="M238.868 216.759H244.053V214.181H238.868V216.759Z" fill="#EBEBEB"/>
<path d="M232.23 216.759H237.415V214.181H232.23V216.759Z" fill="#EBEBEB"/>
<path d="M238.868 212.377H244.053V209.799H238.868V212.377Z" fill="#EBEBEB"/>
<path d="M232.23 212.377H237.415V209.799H232.23V212.377Z" fill="#EBEBEB"/>
<path d="M238.868 207.996H244.053V205.418H238.868V207.996Z" fill="#EBEBEB"/>
<path d="M232.23 207.996H237.415V205.418H232.23V207.996Z" fill="#EBEBEB"/>
<path d="M238.868 203.614H244.053V201.037H238.868V203.614Z" fill="#EBEBEB"/>
<path d="M232.23 203.614H237.415V201.037H232.23V203.614Z" fill="#EBEBEB"/>
<path d="M238.868 199.233H244.053V196.656H238.868V199.233Z" fill="#EBEBEB"/>
<path d="M232.23 199.233H237.415V196.656H232.23V199.233Z" fill="#EBEBEB"/>
<path d="M238.868 194.852H244.053V192.274H238.868V194.852Z" fill="#EBEBEB"/>
<path d="M232.23 194.852H237.415V192.274H232.23V194.852Z" fill="#EBEBEB"/>
<path d="M238.868 190.471H244.053V187.893H238.868V190.471Z" fill="#EBEBEB"/>
<path d="M232.23 190.471H237.415V187.893H232.23V190.471Z" fill="#EBEBEB"/>
<path d="M238.868 186.089H244.053V183.511H238.868V186.089Z" fill="#EBEBEB"/>
<path d="M232.23 186.089H237.415V183.511H232.23V186.089Z" fill="#EBEBEB"/>
<path d="M238.868 181.708H244.053V179.13H238.868V181.708Z" fill="#EBEBEB"/>
<path d="M232.23 181.708H237.415V179.13H232.23V181.708Z" fill="#EBEBEB"/>
<path d="M238.868 177.332H244.053V174.754H238.868V177.332Z" fill="#EBEBEB"/>
<path d="M232.23 177.332H237.415V174.754H232.23V177.332Z" fill="#EBEBEB"/>
<path d="M144.43 197.042H120.743V244.606H144.43V197.042Z" fill="#C7C7C7"/>
<path d="M128.662 201.156H124.471V204.067H128.662V201.156Z" fill="#DBDBDB"/>
<path d="M128.662 207.383H124.471V210.3H128.662V207.383Z" fill="#DBDBDB"/>
<path d="M128.662 213.604H124.471V216.52H128.662V213.604Z" fill="#DBDBDB"/>
<path d="M128.662 219.83H124.471V222.747H128.662V219.83Z" fill="#DBDBDB"/>
<path d="M128.662 226.051H124.471V228.968H128.662V226.051Z" fill="#DBDBDB"/>
<path d="M128.662 232.278H124.471V235.195H128.662V232.278Z" fill="#DBDBDB"/>
<path d="M128.662 238.499H124.471V241.416H128.662V238.499Z" fill="#DBDBDB"/>
<path d="M134.691 201.156H130.5V204.067H134.691V201.156Z" fill="#DBDBDB"/>
<path d="M134.691 207.383H130.5V210.3H134.691V207.383Z" fill="#DBDBDB"/>
<path d="M134.691 213.604H130.5V216.52H134.691V213.604Z" fill="#DBDBDB"/>
<path d="M134.691 219.83H130.5V222.747H134.691V219.83Z" fill="#DBDBDB"/>
<path d="M134.691 226.051H130.5V228.968H134.691V226.051Z" fill="#DBDBDB"/>
<path d="M134.691 232.278H130.5V235.195H134.691V232.278Z" fill="#DBDBDB"/>
<path d="M134.691 238.499H130.5V241.416H134.691V238.499Z" fill="#DBDBDB"/>
<path d="M140.704 201.156H136.513V204.067H140.704V201.156Z" fill="#DBDBDB"/>
<path d="M140.704 207.383H136.513V210.3H140.704V207.383Z" fill="#DBDBDB"/>
<path d="M140.704 213.604H136.513V216.52H140.704V213.604Z" fill="#DBDBDB"/>
<path d="M140.704 219.83H136.513V222.747H140.704V219.83Z" fill="#DBDBDB"/>
<path d="M140.704 226.051H136.513V228.968H140.704V226.051Z" fill="#DBDBDB"/>
<path d="M140.704 232.278H136.513V235.195H140.704V232.278Z" fill="#DBDBDB"/>
<path d="M140.704 238.499H136.513V241.416H140.704V238.499Z" fill="#DBDBDB"/>
<path d="M144.431 192.084H128.661V197.037H144.431V192.084Z" fill="#DBDBDB"/>
<path d="M144.436 189.018H134.436V192.083H144.436V189.018Z" fill="#EBEBEB"/>
<path d="M161.051 197.042H144.431V244.606H161.051V197.042Z" fill="#A6A6A6"/>
<path d="M155.943 240.951H159.354V238.034H155.943V240.951Z" fill="#C7C7C7"/>
<path d="M155.943 234.725H159.354V231.808H155.943V234.725Z" fill="#C7C7C7"/>
<path d="M155.943 228.504H159.354V225.587H155.943V228.504Z" fill="#C7C7C7"/>
<path d="M155.943 222.277H159.354V219.36H155.943V222.277Z" fill="#C7C7C7"/>
<path d="M155.943 216.057H159.354V213.14H155.943V216.057Z" fill="#C7C7C7"/>
<path d="M155.943 209.829H159.354V206.912H155.943V209.829Z" fill="#C7C7C7"/>
<path d="M155.943 203.608H159.354V200.691H155.943V203.608Z" fill="#C7C7C7"/>
<path d="M151.032 240.951H154.443V238.034H151.032V240.951Z" fill="#C7C7C7"/>
<path d="M151.032 234.725H154.443V231.808H151.032V234.725Z" fill="#C7C7C7"/>
<path d="M151.032 228.504H154.443V225.587H151.032V228.504Z" fill="#C7C7C7"/>
<path d="M151.032 222.277H154.443V219.36H151.032V222.277Z" fill="#C7C7C7"/>
<path d="M151.032 216.057H154.443V213.14H151.032V216.057Z" fill="#C7C7C7"/>
<path d="M151.032 209.829H154.443V206.912H151.032V209.829Z" fill="#C7C7C7"/>
<path d="M151.032 203.608H154.443V200.691H151.032V203.608Z" fill="#C7C7C7"/>
<path d="M146.139 240.951H149.55V238.034H146.139V240.951Z" fill="#C7C7C7"/>
<path d="M146.139 234.725H149.55V231.808H146.139V234.725Z" fill="#C7C7C7"/>
<path d="M146.139 228.504H149.55V225.587H146.139V228.504Z" fill="#C7C7C7"/>
<path d="M146.139 222.277H149.55V219.36H146.139V222.277Z" fill="#C7C7C7"/>
<path d="M146.139 216.057H149.55V213.14H146.139V216.057Z" fill="#C7C7C7"/>
<path d="M146.139 209.829H149.55V206.912H146.139V209.829Z" fill="#C7C7C7"/>
<path d="M146.139 203.608H149.55V200.691H146.139V203.608Z" fill="#C7C7C7"/>
<path d="M158.533 192.084H144.431V197.037H158.533V192.084Z" fill="#C7C7C7"/>
<path d="M152.074 189.018H144.431V192.083H152.074V189.018Z" fill="#DBDBDB"/>
<path d="M250 248.381L218.753 248.524L187.5 248.577L125 248.678L62.5 248.577L31.253 248.524L0 248.381L31.253 248.232L62.5 248.184L125 248.083L187.5 248.184L218.753 248.238L250 248.381Z" fill="#263238"/>
<path d="M250 244.601H0V248.226H250V244.601Z" fill="#C7C7C7"/>
<path d="M17.5253 244.601C17.7338 245.183 17.8347 245.798 17.8229 246.417C17.8347 247.025 17.7338 247.631 17.5253 248.202C17.1283 247.027 17.1283 245.753 17.5253 244.577V244.601Z" fill="#263238"/>
<path d="M37.0686 244.601C37.4655 245.776 37.4655 247.05 37.0686 248.226C36.8601 247.654 36.7592 247.049 36.7709 246.44C36.7562 245.814 36.8571 245.19 37.0686 244.601Z" fill="#263238"/>
<path d="M56.6063 244.601C56.8149 245.183 56.9157 245.798 56.904 246.417C56.9157 247.025 56.8148 247.631 56.6063 248.202C56.2094 247.027 56.2094 245.753 56.6063 244.577V244.601Z" fill="#263238"/>
<path d="M76.1496 244.601C76.5466 245.776 76.5466 247.05 76.1496 248.226C75.9411 247.654 75.8402 247.049 75.852 246.44C75.8373 245.814 75.9382 245.19 76.1496 244.601Z" fill="#263238"/>
<path d="M95.6874 244.601C95.8959 245.183 95.9968 245.798 95.985 246.417C95.9968 247.025 95.8959 247.631 95.6874 248.202C95.2904 247.027 95.2904 245.753 95.6874 244.577V244.601Z" fill="#263238"/>
<path d="M115.232 244.601C115.629 245.776 115.629 247.05 115.232 248.226C115.023 247.654 114.922 247.049 114.934 246.44C114.919 245.814 115.02 245.19 115.232 244.601Z" fill="#263238"/>
<path d="M134.768 244.601C134.977 245.183 135.078 245.798 135.066 246.417C135.078 247.025 134.977 247.631 134.768 248.202C134.371 247.027 134.371 245.753 134.768 244.577V244.601Z" fill="#263238"/>
<path d="M154.312 244.601C154.709 245.776 154.709 247.05 154.312 248.226C154.103 247.654 154.002 247.049 154.014 246.44C153.999 245.814 154.1 245.19 154.312 244.601Z" fill="#263238"/>
<path d="M173.85 244.601C174.059 245.183 174.16 245.798 174.148 246.417C174.16 247.025 174.059 247.631 173.85 248.202C173.453 247.027 173.453 245.753 173.85 244.577V244.601Z" fill="#263238"/>
<path d="M193.394 244.601C193.791 245.776 193.791 247.05 193.394 248.226C193.185 247.654 193.084 247.049 193.096 246.44C193.081 245.814 193.182 245.19 193.394 244.601Z" fill="#263238"/>
<path d="M212.931 244.601C213.139 245.183 213.24 245.798 213.228 246.417C213.24 247.025 213.139 247.631 212.931 248.202C212.534 247.027 212.534 245.753 212.931 244.577V244.601Z" fill="#263238"/>
<path d="M232.475 244.601C232.872 245.776 232.872 247.05 232.475 248.226C232.266 247.654 232.165 247.049 232.177 246.44C232.162 245.814 232.263 245.19 232.475 244.601Z" fill="#263238"/>
<path d="M204.919 16.4421L204.776 16.0195C205.151 15.8885 205.532 15.7694 205.913 15.6504L206.044 16.073L204.919 16.4421Z" fill="#263238"/>
<path d="M148.485 64.5595L148.39 64.119C149.175 63.9583 149.955 63.7618 150.711 63.5237L150.83 63.9523C150.068 64.1964 149.277 64.3929 148.485 64.5595ZM153.694 63.0058L153.533 62.5891C154.265 62.3034 155.003 61.9938 155.718 61.6366L155.908 62.0414C155.182 62.3927 154.438 62.7141 153.694 63.0058ZM158.569 60.6246L158.337 60.2437C159.01 59.8389 159.682 59.3983 160.337 58.94L160.593 59.3031C159.926 59.7496 159.248 60.1901 158.569 60.6008V60.6246ZM162.992 57.4696L162.706 57.1243C163.302 56.6302 163.897 56.0944 164.492 55.5408L164.796 55.8682C164.207 56.404 163.599 56.9398 162.992 57.4458V57.4696ZM166.963 53.743L166.635 53.4335C167.171 52.8799 167.713 52.2846 168.261 51.6476L168.594 51.9452C168.046 52.5584 167.499 53.1596 166.963 53.7192V53.743ZM170.535 49.6593L170.189 49.3736C170.695 48.7783 171.189 48.1294 171.684 47.4924L172.035 47.7663C171.547 48.3854 171.049 49.0085 170.541 49.6355L170.535 49.6593ZM173.856 45.3613L173.499 45.0993L174.928 43.1587L175.285 43.4206L173.856 45.3613ZM177.053 40.9799L176.69 40.718L178.113 38.7654L178.47 39.0273L177.053 40.9799ZM180.262 36.5807L179.905 36.3128C180.387 35.6699 180.875 35.027 181.369 34.39L181.72 34.6638C181.226 35.3008 180.744 35.9378 180.262 36.5807ZM183.589 32.3124L183.244 32.0267C183.756 31.4314 184.274 30.7885 184.804 30.1813L185.137 30.473C184.613 31.0802 184.095 31.6933 183.589 32.3124ZM187.161 28.2466L186.834 27.943C187.399 27.3477 187.971 26.7524 188.53 26.2166L188.846 26.5381C188.28 27.056 187.709 27.6513 187.155 28.2466H187.161ZM191.048 24.5081L190.757 24.1688C191.352 23.633 192.001 23.1151 192.62 22.6329L192.9 22.9841C192.269 23.4842 191.674 23.9723 191.043 24.5081H191.048ZM195.317 21.2221L195.067 20.853C195.733 20.4006 196.418 19.96 197.103 19.5552L197.335 19.9362C196.65 20.341 195.972 20.7756 195.311 21.2221H195.317ZM199.954 18.5075L199.758 18.1087C200.472 17.7515 201.216 17.4122 201.954 17.0967L202.127 17.5074C201.389 17.817 200.662 18.1563 199.948 18.5075H199.954Z" fill="#263238"/>
<path d="M144.258 65.1906L144.217 64.7441C144.614 64.7084 145.011 64.6668 145.407 64.6191L145.461 65.0597L144.258 65.1906Z" fill="#263238"/>
<path d="M210.538 8.31571L205.979 15.864L213.146 12.2327L238.595 8.29785L210.538 8.31571Z" fill="#B7682D"/>
<path opacity="0.1" d="M210.538 8.31571L205.979 15.864L213.146 12.2327L238.595 8.29785L210.538 8.31571Z" fill="black"/>
<path d="M213.574 14.2872L205.979 15.8647L213.146 12.2334L213.574 14.2872Z" fill="#263238"/>
<path d="M213.146 12.2327L238.595 8.29785L215.367 23.4719L213.146 12.2327Z" fill="#B7682D"/>
<path d="M210.539 8.31627L201.925 0L238.595 8.29841L210.539 8.31627Z" fill="#B7682D"/>
<path d="M68.6489 72.1797H60.9756V244.607H68.6489V72.1797Z" fill="#37474F"/>
<path d="M68.6553 244.602H72.8164L72.8164 72.1744H68.6553L68.6553 244.602Z" fill="#455A64"/>
<path d="M68.6493 70.0068H60.2676V72.1737H68.6493V70.0068Z" fill="#263238"/>
<path d="M68.6488 72.1797H73.5361V70.0128H68.6488V72.1797Z" fill="#37474F"/>
<path d="M68.6491 68.0908H61.958V70.0136H68.6491V68.0908Z" fill="#37474F"/>
<path d="M71.995 68.0908H68.6494V70.0136H71.995V68.0908Z" fill="#455A64"/>
<path d="M71.3333 63.7625C71.3321 64.6182 71.0773 65.4543 70.6011 66.1652C70.1248 66.8761 69.4485 67.4299 68.6576 67.7566C67.8667 68.0832 66.9967 68.1681 66.1576 68.0004C65.3185 67.8327 64.5479 67.4201 63.9432 66.8146C63.3386 66.2091 62.927 65.438 62.7605 64.5986C62.594 63.7593 62.68 62.8894 63.0077 62.099C63.3355 61.3085 63.8902 60.6329 64.6018 60.1577C65.3133 59.6824 66.1498 59.4287 67.0055 59.4287C67.5744 59.4287 68.1376 59.5408 68.6631 59.7587C69.1885 59.9766 69.6659 60.2959 70.0678 60.6984C70.4698 61.1009 70.7885 61.5787 71.0056 62.1044C71.2227 62.6302 71.3341 63.1936 71.3333 63.7625Z" fill="#37474F"/>
<path d="M35.6583 87.0866V105.541H15.7695V87.2592C15.7688 85.9751 16.021 84.7034 16.5119 83.5167C17.0028 82.3301 17.7226 81.2519 18.6304 80.3436C19.5381 79.4353 20.616 78.7147 21.8023 78.2231C22.9886 77.7315 24.2601 77.4785 25.5443 77.4785H26.0503C28.5985 77.4785 31.0423 78.4908 32.8442 80.2926C34.6461 82.0945 35.6583 84.5384 35.6583 87.0866Z" fill="#B7682D"/>
<path d="M67.0061 85.5864V105.559H35.6579V87.1044C35.6602 85.8412 35.4134 84.5899 34.9316 83.4221C34.4498 82.2543 33.7425 81.193 32.85 80.299C31.9576 79.4049 30.8976 78.6956 29.7308 78.2116C28.5639 77.7276 27.3131 77.4785 26.0498 77.4785H58.922C61.0682 77.4848 63.1244 78.3418 64.6398 79.8617C66.1551 81.3815 67.0061 83.4402 67.0061 85.5864Z" fill="#B7682D"/>
<path opacity="0.1" d="M67.0061 85.5864V105.559H35.6579V87.1044C35.6602 85.8412 35.4134 84.5899 34.9316 83.4221C34.4498 82.2543 33.7425 81.193 32.85 80.299C31.9576 79.4049 30.8976 78.6956 29.7308 78.2116C28.5639 77.7276 27.3131 77.4785 26.0498 77.4785H58.922C61.0682 77.4848 63.1244 78.3418 64.6398 79.8617C66.1551 81.3815 67.0061 83.4402 67.0061 85.5864Z" fill="#020100"/>
<path opacity="0.1" d="M41.0988 86.7294V105.559H39.8189V87.1044C39.8213 85.8417 39.5747 84.5909 39.0932 83.4235C38.6118 82.2561 37.905 81.1951 37.0132 80.3011C36.1214 79.4071 35.0621 78.6976 33.8959 78.2133C32.7298 77.729 31.4795 77.4793 30.2168 77.4785H31.8479C34.3014 77.4785 36.6544 78.4532 38.3893 80.188C40.1241 81.9229 41.0988 84.2759 41.0988 86.7294Z" fill="#020100"/>
<path opacity="0.1" d="M64.0949 86.7291V105.558H62.815V87.1042C62.815 84.557 61.8035 82.114 60.003 80.3123C58.2024 78.5106 55.7601 77.4977 53.2129 77.4961H54.844C57.2944 77.4961 59.6447 78.4683 61.3791 80.1993C63.1134 81.9303 64.0901 84.2787 64.0949 86.7291Z" fill="#020100"/>
<g opacity="0.1">
<path d="M48.0575 100.606V97.6291L46.98 99.796H46.3847L45.3072 97.6291V100.606H44.1523V95.6289H45.4025L46.6943 98.2244L47.986 95.6289H49.2302V100.606H48.0575Z" fill="#020100"/>
<path d="M51.5099 95.6289H52.5516L54.3375 100.606H53.1469L52.76 99.4864H51.2122L50.8312 100.606H49.6406L51.5099 95.6289ZM52.6111 98.6947L52.0158 96.9088L51.4206 98.6947H52.6111Z" fill="#020100"/>
<path d="M54.8555 100.606V95.6289H56.0044V100.606H54.8555Z" fill="#020100"/>
<path d="M56.957 100.606V95.6289H58.106V99.5936H60.5169V100.606H56.957Z" fill="#020100"/>
</g>
<path opacity="0.3" d="M34.6401 87.5389V104.124H16.7813V87.6937C16.7812 86.5386 17.0092 85.3949 17.4519 84.328C17.8947 83.2611 18.5436 82.2921 19.3614 81.4765C20.1793 80.6608 21.1501 80.0145 22.2182 79.5747C23.2862 79.1348 24.4306 78.91 25.5857 78.9131H26.0381C28.3217 78.9194 30.5096 79.831 32.1221 81.448C33.7346 83.0649 34.6401 85.2554 34.6401 87.5389Z" fill="#020100"/>
<path d="M13.5605 107.422L15.769 105.576H35.6578L33.6576 107.249C27.2225 112.648 18.4181 117.03 13.0188 117.03H11.721C6.41696 117.012 5.64903 113.511 13.5605 107.422Z" fill="#37474F"/>
<path d="M35.6515 105.559L33.6573 107.231C27.2222 112.631 18.4178 117.012 13.0184 117.012H11.6076C6.40471 116.958 5.70226 113.44 13.5601 107.404L15.7627 105.559H35.6515Z" fill="#37474F"/>
<path d="M34.1812 105.559L32.1869 107.231C25.7756 112.589 17.0129 116.976 11.6076 117.012C6.40471 116.958 5.70226 113.44 13.5601 107.404L15.7627 105.559H34.1812Z" fill="#455A64"/>
<path d="M63.9286 113.75V118.828L53.374 105.559H57.4161L63.9286 113.75Z" fill="#455A64"/>
<path d="M63.9286 118.828H62.4403L51.8857 105.559H53.3799L63.9286 118.828Z" fill="#37474F"/>
<path d="M47.6115 68.8887V73.5915H43.3075V91.2539C43.3075 91.6486 43.1507 92.0271 42.8716 92.3062C42.5925 92.5853 42.214 92.7421 41.8193 92.7421C41.4246 92.7421 41.0461 92.5853 40.767 92.3062C40.4879 92.0271 40.3311 91.6486 40.3311 91.2539V67.71L43.3075 68.1922L47.6115 68.8887Z" fill="#455A64"/>
<path d="M47.6117 68.8887V73.5915H43.3077V91.2539C43.3064 91.5959 43.1873 91.9271 42.9705 92.1917C42.7536 92.4562 42.4523 92.638 42.1171 92.7064C42.0157 92.7304 41.9118 92.7423 41.8076 92.7421C41.7245 92.7515 41.6406 92.7515 41.5576 92.7421C41.2525 92.6952 40.9706 92.5512 40.7539 92.3314C40.4761 92.051 40.3199 91.6724 40.3193 91.2777V67.71L43.2958 68.1922L47.6117 68.8887Z" fill="#455A64"/>
<path d="M41.8011 92.7421H40.6402C40.3149 92.7458 40.0006 92.6242 39.7623 92.4026C39.5241 92.181 39.3802 91.8763 39.3604 91.5515V67.71H40.3128V91.2539C40.3134 91.6486 40.4696 92.0272 40.7474 92.3075C41.0398 92.5667 41.411 92.7198 41.8011 92.7421Z" fill="#37474F"/>
<path d="M34.6397 87.5392V99.201L31.6633 97.9568L29.925 97.2246L29.1571 96.9032L28.657 96.6889L28.1272 96.4686L27.9665 96.4031L27.7581 96.3138L23.3887 94.4684L24.3114 92.2718L24.49 91.8551L25.2817 89.9858L25.5972 89.2239L25.7282 88.9262L26.2759 87.6166L26.8711 86.1402L29.2523 80.4492L32.3717 81.7648C33.295 82.7821 33.9587 84.0075 34.3064 85.3366C34.5123 86.0533 34.6244 86.7937 34.6397 87.5392Z" fill="#EBEBEB"/>
<path d="M34.6402 90.5744V91.8721L34.5688 91.7233V91.6578L34.5152 91.5447C34.493 91.5083 34.4732 91.4705 34.4557 91.4316L33.7473 89.9732C33.7473 89.9136 33.6877 89.8541 33.658 89.7886L33.0329 88.479C32.9019 88.217 32.7769 87.9551 32.6519 87.6872L32.6162 87.6039L31.6697 85.6096C31.4375 85.1036 31.1994 84.5976 30.9672 84.0857C30.4196 82.8951 29.854 81.6688 29.3242 80.4365C29.9671 81.5735 30.5684 82.7284 31.1934 83.8773C31.4911 84.4726 31.7887 85.0024 32.0864 85.568L33.027 87.3538L33.152 87.5979L33.5508 88.3718L34.039 89.3302C34.039 89.3779 34.0925 89.4255 34.1163 89.4731L34.6402 90.5744Z" fill="#DBDBDB"/>
<path d="M34.64 91.6461V91.6996H34.5686L34.39 91.7532C33.634 91.9854 32.8779 92.1937 32.116 92.3902L31.8659 92.4497L31.3123 92.5866H31.2468L30.592 92.7414L29.3121 93.0272C28.4073 93.2177 27.5262 93.3962 26.5916 93.551H26.4845L25.9308 93.6403C25.1629 93.7713 24.395 93.8784 23.6211 93.9618C24.2878 93.7415 24.9546 93.551 25.6272 93.3665L26.2225 93.2117L26.4071 93.1581C27.3357 92.92 28.2763 92.7116 29.2109 92.5033L30.0503 92.3247C30.3003 92.283 30.5444 92.2295 30.7944 92.1818C31.0444 92.1342 31.3897 92.0628 31.6992 92.0151L32.0445 91.9556L32.235 91.9199C32.9256 91.8008 33.622 91.6937 34.3305 91.6104H34.5448L34.64 91.6461Z" fill="#DBDBDB"/>
<path d="M34.6455 88.6934H19.2393V103.909H34.6455V88.6934Z" fill="white"/>
<path d="M34.6396 95.7184V96.4626L34.4968 96.5876L34.2229 96.8316C34.1897 96.8577 34.1579 96.8855 34.1277 96.915L34.0443 96.9924L33.9848 97.046L31.681 99.0461L31.3655 99.314L31.2286 99.4271L31.0917 99.314L29.9368 98.308L29.3415 97.8139C29.2224 97.7067 29.0974 97.6055 28.9784 97.4924C28.9466 97.4737 28.9184 97.4495 28.895 97.421L28.4783 97.0638L28.4247 97.0162L28.3295 96.9328L28.2343 96.8555C27.4405 96.1848 26.6706 95.5061 25.9245 94.8195L25.615 94.5457L25.1209 94.1052L24.2994 93.373C23.7041 92.861 23.1504 92.3431 22.5849 91.8193L22.3825 91.6407L22.1622 91.4442C21.186 90.5334 20.1978 89.6583 19.2334 88.7178C20.2633 89.5095 21.2753 90.3489 22.2932 91.1585C22.3706 91.224 22.4539 91.2835 22.5313 91.3549L22.7873 91.5633L24.4779 92.9503L25.3352 93.6587L26.2103 94.3909L26.5853 94.7064C27.2917 95.2978 27.9961 95.8931 28.6986 96.4923L28.8534 96.6233L29.2641 96.9745L29.4487 97.1293L29.7939 97.4269L31.2167 98.6175C32.0501 97.9032 32.8895 97.1829 33.7288 96.4745L33.9788 96.2602C34.1396 96.1232 34.2944 95.9863 34.461 95.8554L34.6396 95.7184Z" fill="#DBDBDB"/>
<path d="M28.7466 96.8135L28.3656 97.1349C27.7703 97.6409 27.175 98.1291 26.5202 98.5994C25.7582 99.1947 24.9784 99.7423 24.1926 100.296C23.4068 100.85 22.6091 101.379 21.8114 101.897C21.0137 102.415 20.1803 102.927 19.335 103.391C20.0612 102.755 20.8232 102.159 21.5852 101.576C22.3472 100.992 23.1329 100.433 23.9128 99.8793C24.6926 99.3256 25.5022 98.7899 26.294 98.272C26.9369 97.8612 27.5917 97.4504 28.2644 97.0814L28.7347 96.8194L28.7466 96.8135Z" fill="#DBDBDB"/>
<path d="M34.64 97.3428V97.5929L34.1281 97.1642L33.9852 97.0452L33.7471 96.8428H33.7887L34.0745 97.0035L34.2531 97.1107L34.64 97.3428Z" fill="#DBDBDB"/>
<path d="M89.2167 180.643C89.2167 180.643 70.3459 196.638 70.328 196.644C66.7027 199.686 63.5774 202.418 62.0951 203.978C61.7109 204.302 61.4056 204.709 61.2021 205.169C61.2021 205.169 61.2021 205.198 61.2021 205.21C61.3748 206.901 84.8234 236.582 85.9902 237.356C87.157 238.13 89.4132 234.856 89.4191 232.975C89.4251 231.094 85.5318 215.711 85.5318 215.711L104.242 199.543L89.2167 180.643Z" fill="#EB9481"/>
<path d="M74.2034 193.352C74.2034 193.352 70.3459 196.626 70.328 196.632C66.7027 199.674 63.5774 202.406 62.0951 203.966C61.7514 204.326 61.4517 204.725 61.2021 205.156C61.2021 205.156 61.2021 205.186 61.2021 205.198C61.3748 206.889 84.8234 236.57 85.9902 237.344C87.157 238.118 89.4132 234.844 89.4191 232.962C89.4251 231.081 85.5318 215.699 85.5318 215.699L89.5084 212.419L74.2034 193.352Z" fill="#EBEBEB"/>
<path d="M85.96 237.367C84.7695 236.611 61.3446 206.93 61.172 205.221C61.0946 204.572 65.22 200.905 70.3276 196.619L70.4943 196.482L85.8291 215.46L85.5017 215.71C85.5017 215.71 89.3949 231.087 89.3889 232.974C89.383 234.861 87.1209 238.135 85.96 237.367Z" fill="#B7682D"/>
<path d="M86.8409 236.123C83.0131 231.027 67.089 210.817 62.916 206.067C62.8803 206.031 62.8505 206.067 62.8862 206.067C66.5711 211.204 82.656 231.283 86.7635 236.165C86.8469 236.29 86.9004 236.23 86.8409 236.123Z" fill="#263238"/>
<path d="M86.7161 217.383C85.5255 215.127 83.323 212.954 80.7334 212.562C80.6322 212.562 80.6084 212.687 80.6799 212.734C82.7736 214.137 84.7114 215.759 86.4602 217.574C86.4872 217.602 86.5238 217.62 86.5629 217.623C86.602 217.626 86.641 217.615 86.6725 217.592C86.7039 217.569 86.7258 217.534 86.7338 217.496C86.7419 217.458 86.7356 217.418 86.7161 217.383Z" fill="#263238"/>
<path d="M86.9784 219.479C85.7878 217.223 83.5852 215.056 81.0254 214.657C80.9242 214.657 80.9064 214.782 80.9778 214.83C83.0697 216.233 85.0055 217.855 86.7522 219.67C86.7803 219.684 86.812 219.689 86.8433 219.686C86.8746 219.682 86.9041 219.669 86.9282 219.649C86.9523 219.629 86.9699 219.602 86.9789 219.572C86.9878 219.541 86.9876 219.509 86.9784 219.479Z" fill="#263238"/>
<path d="M87.2464 221.581C86.0559 219.319 83.8533 217.152 81.2637 216.753C81.1625 216.753 81.1447 216.884 81.2161 216.932C83.3078 218.332 85.2437 219.953 86.9905 221.765C87.0176 221.791 87.0529 221.806 87.0901 221.809C87.1273 221.811 87.1643 221.8 87.1945 221.779C87.2248 221.757 87.2465 221.725 87.256 221.689C87.2655 221.653 87.2621 221.615 87.2464 221.581Z" fill="#263238"/>
<path d="M99.1873 161.861C97.9967 168.624 70.6846 196.132 70.6846 196.132L90.6746 218.158C90.6746 218.158 129.369 177.678 126.988 162.843C124.886 149.949 104.307 98.3848 104.307 98.3848L81.9654 98.9086C81.9654 98.9086 100.372 155.212 99.1873 161.861Z" fill="#37474F"/>
<path d="M92.7648 212.752C90.1038 209.591 90.9134 210.46 88.2167 207.329C86.8952 205.799 78.2158 195.745 76.7335 194.53C76.6978 194.53 76.6442 194.53 76.668 194.59C77.68 196.215 86.538 206.115 87.8834 207.621C90.6396 210.698 89.8836 209.788 92.6457 212.83C92.6508 212.837 92.6574 212.844 92.6651 212.849C92.6727 212.855 92.6814 212.858 92.6905 212.86C92.6996 212.862 92.7091 212.862 92.7182 212.861C92.7274 212.859 92.7361 212.856 92.7439 212.85C92.7518 212.845 92.7585 212.839 92.7638 212.831C92.7691 212.823 92.7728 212.815 92.7747 212.806C92.7766 212.797 92.7768 212.787 92.7751 212.778C92.7734 212.769 92.7699 212.76 92.7648 212.752Z" fill="#263238"/>
<path d="M102.974 159.557C102.617 157.884 102.212 156.217 101.819 154.556C101.025 151.159 100.178 147.77 99.2772 144.389C97.5072 137.686 95.6002 131.024 93.5564 124.404C91.4967 117.767 89.3298 111.135 86.8593 104.635C86.5498 103.831 86.2343 103.033 85.9247 102.254C85.92 102.24 85.9101 102.229 85.8973 102.223C85.8844 102.217 85.8697 102.216 85.8562 102.221C85.8428 102.226 85.8318 102.235 85.8257 102.248C85.8196 102.261 85.8188 102.276 85.8235 102.289C87.9844 108.808 90.2108 115.308 92.2467 121.869C94.2826 128.429 96.1638 134.965 97.9556 141.579C98.8545 144.895 99.6939 148.222 100.521 151.556C100.918 153.195 101.315 154.836 101.712 156.479C102.187 158.141 102.539 159.837 102.766 161.551C102.864 163.179 102.448 164.798 101.575 166.176C100.771 167.563 99.7891 168.879 98.8962 170.189C97.0448 172.826 79.3348 193.512 78.7633 194.072C78.7157 194.119 78.7633 194.185 78.8347 194.137C81.2159 191.893 96.265 174.832 98.164 172.201C99.0986 170.903 100.015 169.581 100.914 168.254C101.812 167.043 102.528 165.707 103.039 164.289C103.43 162.733 103.407 161.102 102.974 159.557Z" fill="#263238"/>
<path d="M99.7116 98.4912L98.8722 157.741C96.36 142.954 81.9658 98.9079 81.9658 98.9079L99.7116 98.4912Z" fill="#263238"/>
<path d="M93.4131 208.282C93.4131 208.282 98.7707 231.653 98.7707 231.665C98.9434 236.427 99.1815 240.535 99.5089 242.666C99.5061 242.678 99.5061 242.69 99.5089 242.702C99.5287 243.208 99.6652 243.703 99.9078 244.148L99.9375 244.178C101.378 245.083 139.227 244.773 140.519 244.333C141.811 243.892 140.644 240.088 139.167 238.934C137.691 237.779 123.154 231.409 123.154 231.409L117.546 208.056L93.4131 208.282Z" fill="#EB9481"/>
<path d="M140.537 244.338C139.221 244.797 101.396 245.094 99.9557 244.189L99.9259 244.16C99.6795 243.716 99.5427 243.22 99.5271 242.713C99.5244 242.707 99.5231 242.701 99.5231 242.695C99.5231 242.689 99.5244 242.683 99.5271 242.677C99.2056 240.546 98.9735 236.409 98.7949 231.682L97.8662 227.61L122.13 227.045L123.178 231.414C123.178 231.414 137.709 237.784 139.198 238.945C140.686 240.106 141.858 243.88 140.537 244.338Z" fill="#EBEBEB"/>
<path d="M140.537 244.338C139.222 244.791 101.403 245.088 99.9562 244.184C99.3966 243.85 99.0335 238.344 98.7656 231.682C98.7656 231.617 98.7656 231.545 98.7656 231.474L123.173 231.016V231.426C123.173 231.426 137.698 237.79 139.186 238.951C140.674 240.112 141.853 243.88 140.537 244.338Z" fill="#B7682D"/>
<path d="M140.096 242.868C133.721 242.761 107.992 242.934 101.682 243.309C101.628 243.309 101.628 243.35 101.682 243.35C107.998 243.595 133.726 243.214 140.096 242.975C140.233 242.969 140.233 242.868 140.096 242.868Z" fill="#263238"/>
<path d="M125.22 231.469C122.708 231.016 119.642 231.427 117.743 233.255C117.666 233.326 117.743 233.427 117.85 233.403C120.24 232.607 122.709 232.072 125.214 231.808C125.236 231.808 125.259 231.804 125.279 231.796C125.3 231.788 125.319 231.776 125.335 231.76C125.351 231.745 125.364 231.727 125.373 231.706C125.382 231.686 125.386 231.664 125.387 231.641C125.387 231.619 125.383 231.597 125.375 231.576C125.367 231.556 125.355 231.537 125.339 231.521C125.324 231.505 125.305 231.492 125.285 231.483C125.264 231.474 125.242 231.469 125.22 231.469Z" fill="#263238"/>
<path d="M127.042 232.546C124.53 232.093 121.464 232.504 119.559 234.332C119.488 234.403 119.559 234.504 119.666 234.481C122.058 233.685 124.529 233.15 127.036 232.885C127.058 232.886 127.08 232.882 127.101 232.873C127.122 232.865 127.141 232.853 127.157 232.838C127.173 232.822 127.186 232.804 127.195 232.783C127.203 232.763 127.208 232.741 127.209 232.719C127.209 232.696 127.205 232.674 127.197 232.653C127.189 232.633 127.176 232.614 127.161 232.598C127.146 232.582 127.127 232.569 127.107 232.56C127.086 232.551 127.064 232.546 127.042 232.546Z" fill="#263238"/>
<path d="M128.857 233.623C126.345 233.171 123.279 233.581 121.38 235.409C121.303 235.48 121.38 235.582 121.487 235.558C123.877 234.762 126.346 234.227 128.851 233.962C128.896 233.963 128.939 233.946 128.972 233.915C129.004 233.884 129.023 233.841 129.024 233.796C129.024 233.751 129.007 233.707 128.976 233.675C128.945 233.642 128.902 233.624 128.857 233.623Z" fill="#263238"/>
<path d="M102.147 98.4261C102.147 98.8964 100.331 118.071 99.7241 118.613C99.1168 119.154 95.1641 121.928 93.9914 122.684C93.9914 122.684 105.481 155.795 108.576 166.849C113.071 182.881 124.054 231.028 124.054 231.028L97.7715 231.623C97.7715 231.623 88.7051 185.756 84.8536 170.487C81.5557 157.39 69.1616 118.178 69.1616 118.178C67.5076 111.926 67.6749 105.331 69.6438 99.1702C69.6438 99.1702 102.153 98.4082 102.147 98.4261Z" fill="#37474F"/>
<path d="M122.993 225.938C118.862 226.01 120.047 225.938 115.915 226.052C113.897 226.111 100.616 226.51 98.741 226.897C98.6993 226.897 98.7053 226.974 98.741 226.98C100.64 227.218 113.909 226.587 115.927 226.492C120.053 226.29 118.868 226.302 122.993 226.058C123.009 226.058 123.024 226.051 123.035 226.04C123.047 226.029 123.053 226.014 123.053 225.998C123.053 225.982 123.047 225.967 123.035 225.956C123.024 225.945 123.009 225.938 122.993 225.938Z" fill="#263238"/>
<path d="M100.867 117.619C98.3434 119.082 95.9531 120.763 93.723 122.643C93.7132 122.65 93.7048 122.658 93.6984 122.668C93.6919 122.678 93.6874 122.689 93.6852 122.7C93.683 122.712 93.6831 122.724 93.6855 122.736C93.6879 122.747 93.6925 122.758 93.6992 122.768C93.7058 122.778 93.7143 122.786 93.7242 122.793C93.7341 122.799 93.7451 122.804 93.7567 122.806C93.7683 122.808 93.7803 122.808 93.7919 122.805C93.8034 122.803 93.8144 122.798 93.8242 122.792C96.2411 121.19 98.7235 119.637 101.057 117.91C101.085 117.881 101.103 117.843 101.107 117.803C101.11 117.763 101.1 117.722 101.078 117.688C101.056 117.654 101.023 117.629 100.985 117.616C100.946 117.604 100.904 117.605 100.867 117.619Z" fill="#263238"/>
<path d="M98.4311 99.5089C98.4311 99.4196 98.2466 99.4315 98.2645 99.5089C98.7923 102.443 99.1718 105.401 99.4015 108.373C99.5205 109.742 99.7706 117.403 97.3358 117.302C96.9251 117.302 96.6572 116.933 96.4845 116.356C96.3573 115.581 96.3254 114.793 96.3893 114.01C96.3893 112.397 96.294 110.796 96.1452 109.188C95.8934 106.199 95.3308 103.245 94.4665 100.372C94.4595 100.355 94.4466 100.341 94.4302 100.332C94.4137 100.324 94.3947 100.322 94.3767 100.326C94.3587 100.33 94.3428 100.341 94.332 100.356C94.3212 100.371 94.3161 100.389 94.3177 100.408C95.1191 104.472 95.6106 108.592 95.788 112.73C95.8476 114.725 95.3892 117.826 97.4787 117.761C99.5682 117.695 100.062 112.558 100.074 111.171C100.036 107.229 99.4838 103.308 98.4311 99.5089Z" fill="#263238"/>
<path d="M97.4259 117.47C97.3102 118.012 97.2267 118.561 97.1759 119.113C97.0924 119.547 97.0924 119.994 97.1759 120.428C97.1759 120.506 97.3068 120.494 97.3425 120.428C97.5191 120.004 97.6276 119.554 97.664 119.095C97.7593 118.583 97.8605 118.077 97.9378 117.565C97.9346 117.505 97.9113 117.448 97.8717 117.403C97.8321 117.358 97.7784 117.327 97.7193 117.316C97.6603 117.305 97.5992 117.314 97.546 117.342C97.4928 117.37 97.4505 117.415 97.4259 117.47Z" fill="#263238"/>
<path d="M94.2709 212.122C94.1875 211.526 94.0923 210.931 93.9911 210.306C93.8006 209.145 93.5744 207.99 93.3958 206.829C92.9791 204.502 92.5266 202.18 92.0564 199.864C91.1217 195.245 90.0621 190.637 88.9549 186.06C88.3239 183.47 87.6036 180.91 86.8475 178.356C86.794 178.178 86.5439 178.273 86.5796 178.446C87.0559 180.785 87.5202 183.131 88.056 185.464C88.5917 187.798 89.1216 190.114 89.6454 192.441C90.6693 197.043 91.6337 201.662 92.6517 206.264C92.9433 207.562 93.2053 208.865 93.491 210.163C93.6339 210.814 93.7827 211.463 93.9375 212.11C94.0923 212.753 94.3066 213.384 94.4316 214.033C94.4316 214.092 94.5328 214.062 94.5209 214.033C94.384 213.384 94.3601 212.747 94.2709 212.122Z" fill="#263238"/>
<path d="M111.576 176.779C110.599 172.439 109.32 168.165 108.034 163.908C105.444 155.342 102.432 146.907 99.4317 138.477L96.8362 131.191C96.4016 130 94.2645 123.422 94.0086 122.803C94.0038 122.79 93.9939 122.779 93.9811 122.773C93.9683 122.767 93.9535 122.766 93.9401 122.771C93.9267 122.775 93.9157 122.785 93.9095 122.798C93.9034 122.811 93.9026 122.826 93.9074 122.839C94.5027 125.071 95.3837 128.328 96.0861 130.542C96.7886 132.757 97.5446 134.888 98.2828 137.09C99.7234 141.359 101.188 145.621 102.593 149.907C105.367 158.372 108.123 166.837 110.421 175.451C111.058 177.862 111.701 180.273 112.29 182.702C112.879 185.131 113.397 187.56 113.963 189.988C113.963 190.054 114.088 190.03 114.082 189.988C113.468 185.546 112.632 181.137 111.576 176.779Z" fill="#263238"/>
<path d="M95.77 199.971C94.133 191.685 92.1983 183.452 90.0909 175.278C87.9836 167.105 85.6322 158.896 83.0724 150.806C80.5126 142.716 77.7147 134.703 74.7025 126.762C73.1989 123.029 71.9168 119.21 70.8629 115.326C69.9104 111.457 69.3687 107.266 70.1843 103.325C70.3873 102.325 70.6659 101.342 71.0177 100.384C71.0177 100.319 70.9403 100.265 70.9165 100.331C67.94 107.772 70.1664 115.778 72.744 122.952C74.1549 126.899 75.6491 130.816 77.0421 134.768C78.4787 138.824 79.8538 142.9 81.1675 146.996C83.7867 155.116 86.2275 163.283 88.436 171.522C90.6445 179.761 92.6388 188.047 94.389 196.387C96.1391 204.727 97.7047 213.163 99.2525 221.574C99.4549 222.67 99.6216 223.771 99.7883 224.872C99.7883 224.932 99.8954 224.932 99.8895 224.872C98.7048 216.556 97.4071 208.246 95.77 199.971Z" fill="#263238"/>
<path d="M90.4726 64.3868C93.1931 74.4354 99.5806 89.9845 104.903 89.794C109.754 89.6035 120.38 80.7396 124.863 77.8107C129.345 74.8819 118.91 63.9999 116.338 65.8632C112.368 68.7444 106.45 73.8639 105.42 73.5603C104.141 73.1793 102.444 70.0957 94.9909 61.0591C91.9072 57.3445 89.282 60.1067 90.4726 64.3868Z" fill="#EB9481"/>
<path d="M121.089 61.4638C123.208 60.6542 125.578 59.5588 127.959 59.5469C130.34 59.535 132.382 62.6305 132.406 63.5294C132.429 64.4283 131.656 70.0777 129.28 70.1134C126.905 70.1491 128.239 65.8273 128.137 65.351C128.036 64.8748 127.929 64.2319 127.483 64.2914C127.036 64.3509 119.273 68.2501 119.273 68.2501L121.089 61.4638Z" fill="#EB9481"/>
<path d="M121.243 61.7852C121.38 61.7852 127.69 59.1242 130.071 59.1123C132.453 59.1004 134.524 62.1781 134.524 63.0889C134.524 63.9997 133.774 69.6371 131.399 69.6729C129.024 69.7086 130.357 65.3867 130.256 64.9105C130.155 64.4343 130.048 63.7854 129.601 63.8449C129.155 63.9045 121.392 67.8096 121.392 67.8096L121.243 61.7852Z" fill="#EB9481"/>
<path d="M130.578 69.3938C130.318 68.9717 130.17 68.4901 130.149 67.9949C130.09 67.4891 130.108 66.9772 130.203 66.4769C130.324 66.046 130.409 65.606 130.459 65.1613C130.446 64.7213 130.323 64.2916 130.102 63.9112C129.911 63.5838 129.56 63.7028 129.262 63.8159C128.825 63.9915 128.398 64.1902 127.982 64.4112L126.649 65.1553C126.179 65.3912 125.724 65.6556 125.286 65.9471C125.277 65.951 125.27 65.9583 125.267 65.9672C125.264 65.9761 125.264 65.986 125.268 65.9947C125.272 66.0034 125.279 66.0102 125.288 66.0135C125.297 66.0169 125.307 66.0165 125.315 66.0126C125.722 65.8348 126.12 65.6361 126.506 65.4173L127.851 64.7624C128.274 64.566 128.685 64.3398 129.113 64.1672C129.262 64.1017 129.56 63.929 129.709 63.9648C129.858 64.0005 129.989 64.4469 130.036 64.5898C130.144 65.0145 130.125 65.4613 129.983 65.8757C129.867 66.3038 129.795 66.7426 129.768 67.1853C129.735 67.6022 129.777 68.0217 129.893 68.4235C130.051 68.7813 130.251 69.1191 130.489 69.4296C130.536 69.4831 130.614 69.4296 130.578 69.3938Z" fill="#263238"/>
<path d="M113.85 68.203C113.85 68.203 120.297 62.0417 121.642 60.8214C124.339 58.3628 135.816 53.3564 137.429 53.148C139.042 52.9397 139.697 56.2376 131.911 59.863C127.809 61.7679 127.148 64.161 127.238 65.4766C127.327 66.7922 128.661 69.2151 130.869 69.1019C133.078 68.9888 134.441 65.7266 136.471 65.3218C138.501 64.917 137.239 68.6733 135.876 70.8581C134.417 72.9669 132.39 74.6184 130.03 75.6204C128.131 76.3824 122.291 79.0731 122.291 79.0731L113.85 68.203Z" fill="#EB9481"/>
<path d="M133.584 67.4828C132.762 68.1496 131.839 69.0068 130.744 69.0723C129.649 69.1378 128.857 68.4234 128.309 67.5126C127.708 66.6181 127.474 65.527 127.654 64.4647C127.891 63.5036 128.397 62.6299 129.113 61.9466C130.001 61.1196 131.004 60.424 132.089 59.8809C132.137 59.8809 132.089 59.7857 132.042 59.8095C131.036 60.2917 127.875 61.6609 127.333 64.4706C127.157 65.5558 127.402 66.6673 128.018 67.5781C128.53 68.4472 129.262 69.2806 130.339 69.364C131.649 69.4414 132.75 68.352 133.673 67.5364C133.685 67.4769 133.625 67.4471 133.584 67.4828Z" fill="#263238"/>
<path d="M113.832 67.3635L124.042 82.4185C124.042 82.4185 108.612 91.5562 104.165 90.2466C99.718 88.9369 92.7293 76.4119 89.7171 65.3514C86.7049 54.2908 93.6401 58.3864 96.3725 61.7796C99.1049 65.1728 105.04 72.9711 105.355 72.858C105.671 72.7449 113.832 67.3635 113.832 67.3635Z" fill="#B7682D"/>
<path d="M119.606 84.8885C118.647 85.4005 117.594 85.9422 116.487 86.4839L107.587 71.4348C108.48 70.8395 109.516 70.1847 110.486 69.5537C113.29 74.2565 116.695 79.9773 119.606 84.8885Z" fill="#EBEBEB"/>
<path d="M115.285 87.0673L114.261 87.5376L105.498 72.7564C105.689 72.6493 106.01 72.4469 106.427 72.1611C109.183 76.8044 112.463 82.3169 115.285 87.0673Z" fill="#EBEBEB"/>
<path d="M113.148 88.0322C109.618 89.568 106.147 90.705 104.314 90.2883L104.153 90.2467C99.7 88.937 92.7232 76.418 89.705 65.3514C89.2561 63.8711 89.0058 62.3377 88.9609 60.7915C88.9609 60.7319 88.9609 60.6843 88.9609 60.6248C88.9609 60.5653 88.9609 60.4521 88.9609 60.3629C88.958 60.3272 88.958 60.2914 88.9609 60.2557C88.9544 60.1765 88.9544 60.0968 88.9609 60.0176L113.148 88.0322Z" fill="#263238"/>
<path d="M118.505 81.0554C118.184 80.5197 117.85 79.9839 117.523 79.4541C116.862 78.3885 112.898 72.0724 111.344 70.1616C111.302 70.108 111.225 70.1616 111.249 70.227C112.356 72.4415 116.457 78.6385 117.142 79.6625C117.493 80.1804 117.839 80.7042 118.196 81.2221C118.553 81.74 118.97 82.2222 119.327 82.7461C119.362 82.7937 119.446 82.7461 119.416 82.6985C119.089 82.1627 118.827 81.5912 118.505 81.0554Z" fill="#263238"/>
<path d="M67.4347 108.891C67.5299 108.992 106.909 104.295 107.254 103.873C107.742 103.277 97.6757 64.0356 93.4193 58.8566C92.5085 57.7493 89.6213 57.5291 87.1866 57.916C86.5516 58.0095 85.926 58.1589 85.3173 58.3625H85.2578C84.7651 58.5218 84.3039 58.7656 83.8946 59.0828C77.2749 64.744 72.1851 83.9185 71.0422 89.669C69.1372 99.158 67.0954 108.528 67.4347 108.891Z" fill="#B7682D"/>
<path d="M106.444 99.6167C96.9197 100.849 76.2571 103.528 68.042 104.51C68.3277 103.052 68.673 101.313 69.0659 99.3964L105.278 94.8662C105.736 96.6521 106.135 98.2713 106.444 99.6167Z" fill="#EBEBEB"/>
<path d="M104.79 92.9316C95.384 94.152 78.0014 96.3962 69.4648 97.438L69.7982 95.8069L104.403 91.4434C104.534 91.9434 104.665 92.4435 104.79 92.9316Z" fill="#EBEBEB"/>
<path d="M81.216 69.3753C83.2102 79.6441 92.3123 98.7174 97.9914 100.402C104.569 102.349 127.054 94.5801 131.423 91.2167C133.161 89.8832 123.464 78.7155 121.303 79.5489C112.159 83.1564 104.04 85.0911 102.819 84.3112C100.962 83.1207 93.2945 72.6256 88.2821 66.125C81.9898 57.9575 80.3171 64.7737 81.216 69.3753Z" fill="#EB9481"/>
<path d="M130.846 91.5441C131.846 91.1571 138.668 85.9602 140.656 83.5493C142.818 81.051 144.555 78.2156 145.8 75.1556C147.746 70.3099 148.633 66.7798 148.103 65.2201C147.508 63.4045 147.312 63.1128 142.698 71.1731C140.091 75.739 137.513 76.3045 135.269 76.3105C129.743 76.3362 124.305 77.6877 119.41 80.2513C119.41 80.2513 127.006 93.0145 130.846 91.5441Z" fill="#EB9481"/>
<path d="M151.407 59.2015L139.775 74.6018C139.608 74.8132 139.385 74.973 139.131 75.0626C138.877 75.1522 138.603 75.1678 138.34 75.1078L129.917 72.5242C129.809 72.5019 129.709 72.4499 129.628 72.3739C129.548 72.2979 129.49 72.201 129.461 72.094C129.433 71.987 129.435 71.8742 129.467 71.7683C129.499 71.6624 129.56 71.5675 129.643 71.4943L141.275 56.094C141.441 55.8814 141.664 55.7208 141.919 55.6311C142.173 55.5414 142.447 55.5265 142.71 55.588L151.133 58.1716C151.242 58.1939 151.342 58.2459 151.422 58.3219C151.503 58.3979 151.561 58.4948 151.589 58.6018C151.617 58.7088 151.616 58.8216 151.583 58.9275C151.551 59.0334 151.49 59.1283 151.407 59.2015Z" fill="#37474F"/>
<path d="M150.377 57.9164L141.954 55.3328C141.691 55.2734 141.416 55.29 141.162 55.3806C140.908 55.4713 140.685 55.6322 140.519 55.8448L128.893 71.245C128.803 71.3167 128.735 71.4131 128.699 71.5224C128.662 71.6318 128.658 71.7494 128.687 71.861C128.716 71.9726 128.777 72.0734 128.862 72.1511C128.947 72.2288 129.053 72.2801 129.167 72.2987L137.59 74.8823C137.853 74.9409 138.127 74.9246 138.38 74.8351C138.634 74.7456 138.857 74.5866 139.025 74.3763L150.651 58.976C150.743 58.9048 150.813 58.8081 150.85 58.6978C150.888 58.5876 150.893 58.4687 150.864 58.3559C150.835 58.2431 150.773 58.1413 150.686 58.0632C150.6 57.985 150.492 57.934 150.377 57.9164ZM138.846 73.7096C138.696 73.9089 138.492 74.0616 138.258 74.15C138.024 74.2385 137.77 74.2591 137.525 74.2096L129.994 71.8999C129.572 71.7689 129.477 71.3046 129.786 70.9295L140.614 56.5889C141.21 55.7674 141.609 55.8269 142.031 55.9579L143.537 56.4222C143.627 56.4222 143.633 56.5591 143.537 56.6663L143.502 56.7139C143.305 56.9758 143.466 57.0234 143.662 57.083L147.151 58.1545C147.243 58.2065 147.353 58.22 147.455 58.1921C147.558 58.1643 147.645 58.0973 147.698 58.0057L147.734 57.9581C147.766 57.9065 147.813 57.8652 147.867 57.8388C147.922 57.8125 147.983 57.8022 148.044 57.8092L149.556 58.2736C149.972 58.3986 150.234 58.6129 149.663 59.3689L138.846 73.7096Z" fill="#263238"/>
<path d="M146.132 57.446L145.186 57.1483C145.181 57.1444 145.177 57.1395 145.174 57.1338C145.171 57.1281 145.17 57.1219 145.17 57.1156C145.17 57.1093 145.171 57.1031 145.174 57.0974C145.177 57.0917 145.181 57.0867 145.186 57.0828C145.197 57.0674 145.213 57.0557 145.231 57.0494C145.249 57.043 145.269 57.0422 145.287 57.0471L146.239 57.3388C146.246 57.3425 146.251 57.3478 146.254 57.354C146.258 57.3603 146.26 57.3673 146.26 57.3745C146.26 57.3817 146.258 57.3888 146.254 57.3951C146.251 57.4013 146.246 57.4066 146.239 57.4103C146.227 57.4256 146.21 57.4371 146.191 57.4434C146.172 57.4497 146.152 57.4506 146.132 57.446Z" fill="white"/>
<path d="M149.674 59.3682L138.846 73.7088C138.695 73.9082 138.491 74.0608 138.257 74.1493C138.024 74.2378 137.769 74.2584 137.524 74.2089L129.994 71.8991C129.571 71.7682 129.476 71.3038 129.786 70.9288L140.614 56.5882C141.209 55.7667 141.608 55.8262 142.031 55.9571L143.537 56.4215C143.626 56.4215 143.632 56.5584 143.537 56.6655L143.501 56.7132C143.305 56.9751 143.466 57.0227 143.662 57.0823L147.15 58.1538C147.243 58.2057 147.352 58.2193 147.455 58.1914C147.557 58.1636 147.645 58.0966 147.698 58.005L147.734 57.9573C147.766 57.9058 147.812 57.8645 147.867 57.8381C147.922 57.8118 147.983 57.8015 148.043 57.8085L149.555 58.2728C150.002 58.3979 150.246 58.6062 149.674 59.3682Z" fill="white"/>
<path d="M149.675 59.3682L148.865 60.4397L139.805 57.6597L140.614 56.5882C141.21 55.7667 141.608 55.8262 142.031 55.9571L143.537 56.4215C143.626 56.4215 143.632 56.5584 143.537 56.6655L143.501 56.7132C143.305 56.9751 143.466 57.0227 143.662 57.0823L147.151 58.1538C147.243 58.2057 147.352 58.2193 147.455 58.1914C147.557 58.1636 147.645 58.0966 147.698 58.005L147.734 57.9573C147.766 57.9058 147.812 57.8645 147.867 57.8381C147.922 57.8118 147.983 57.8015 148.044 57.8085L149.55 58.2728C150.002 58.3979 150.246 58.6062 149.675 59.3682Z" fill="#B7682D"/>
<path d="M141.115 57.4161L141.02 57.1125L141.454 56.9756L141.466 57.0232L141.109 57.1423L141.186 57.3923L141.115 57.4161Z" fill="white"/>
<path d="M148.847 59.4041C148.835 59.412 148.82 59.4163 148.806 59.4163C148.791 59.4163 148.776 59.412 148.764 59.4041C148.759 59.4008 148.755 59.3964 148.752 59.3912C148.75 59.386 148.748 59.3802 148.748 59.3743C148.748 59.3684 148.75 59.3626 148.752 59.3574C148.755 59.3522 148.759 59.3478 148.764 59.3445C148.773 59.3312 148.786 59.3207 148.8 59.3144C148.815 59.308 148.832 59.3061 148.847 59.3088C148.859 59.3505 148.871 59.3803 148.847 59.4041Z" fill="white"/>
<path d="M148.722 59.5708C148.709 59.5792 148.694 59.5837 148.678 59.5837C148.662 59.5837 148.647 59.5792 148.633 59.5708C148.628 59.5675 148.624 59.5631 148.621 59.5579C148.619 59.5527 148.617 59.5469 148.617 59.541C148.617 59.5351 148.619 59.5293 148.621 59.5241C148.624 59.5189 148.628 59.5145 148.633 59.5112C148.642 59.4973 148.654 59.4863 148.669 59.4799C148.684 59.4735 148.701 59.4719 148.717 59.4755C148.729 59.4747 148.742 59.479 148.751 59.4874C148.761 59.4957 148.766 59.5075 148.767 59.5202C148.768 59.5328 148.764 59.5452 148.755 59.5547C148.747 59.5642 148.735 59.57 148.722 59.5708Z" fill="white"/>
<path d="M148.597 59.7372C148.584 59.7457 148.568 59.7502 148.553 59.7502C148.537 59.7502 148.521 59.7457 148.508 59.7372C148.478 59.7372 148.472 59.7015 148.508 59.6717C148.519 59.6599 148.533 59.651 148.549 59.6458C148.565 59.6406 148.581 59.6393 148.597 59.6419C148.61 59.6419 148.622 59.647 148.631 59.6559C148.64 59.6648 148.645 59.6769 148.645 59.6896C148.645 59.7022 148.64 59.7143 148.631 59.7232C148.622 59.7322 148.61 59.7372 148.597 59.7372Z" fill="white"/>
<path d="M143.037 56.666H142.996C142.989 56.6422 142.977 56.6207 142.959 56.6039C142.941 56.587 142.919 56.5756 142.894 56.5708C142.836 56.5532 142.774 56.5532 142.716 56.5708H142.746H142.805H142.906H142.948V56.6065L143.037 56.666Z" fill="white"/>
<path d="M142.733 56.6485C142.774 56.6367 142.818 56.6367 142.858 56.6485C142.883 56.6489 142.907 56.6572 142.926 56.6723C142.945 56.6873 142.959 56.7082 142.966 56.7318H142.93C142.923 56.7171 142.913 56.7042 142.901 56.6939C142.889 56.6836 142.874 56.6762 142.858 56.6723C142.822 56.6481 142.777 56.6395 142.733 56.6485Z" fill="white"/>
<path d="M142.859 56.7193H142.823C142.82 56.7109 142.816 56.7032 142.809 56.697C142.803 56.6908 142.796 56.6862 142.787 56.6836C142.766 56.6781 142.743 56.6781 142.722 56.6836C142.805 56.6479 142.859 56.6658 142.859 56.7193Z" fill="white"/>
<path d="M142.805 56.738C142.805 56.738 142.805 56.738 142.769 56.738H142.799C142.799 56.738 142.81 56.732 142.805 56.738Z" fill="white"/>
<path d="M141.585 56.2674C141.594 56.2539 141.607 56.2429 141.621 56.2356C141.636 56.2283 141.652 56.2249 141.668 56.2257C141.674 56.2294 141.679 56.2346 141.683 56.2409C141.687 56.2472 141.688 56.2542 141.688 56.2614C141.688 56.2686 141.687 56.2757 141.683 56.2819C141.679 56.2882 141.674 56.2934 141.668 56.2971C141.657 56.3126 141.641 56.3242 141.623 56.3306C141.605 56.337 141.586 56.3378 141.567 56.3328C141.563 56.3277 141.56 56.3216 141.559 56.3151C141.557 56.3086 141.557 56.3019 141.559 56.2955C141.561 56.2891 141.564 56.2832 141.569 56.2783C141.573 56.2734 141.579 56.2697 141.585 56.2674Z" fill="white"/>
<path d="M141.775 56.327C141.786 56.3115 141.802 56.2999 141.82 56.2935C141.838 56.2871 141.858 56.2864 141.876 56.2913C141.882 56.295 141.888 56.3002 141.891 56.3065C141.895 56.3127 141.896 56.3198 141.896 56.327C141.896 56.3342 141.895 56.3412 141.891 56.3475C141.888 56.3538 141.882 56.359 141.876 56.3627C141.864 56.377 141.848 56.3879 141.83 56.3941C141.813 56.4004 141.794 56.4019 141.775 56.3984C141.769 56.3947 141.764 56.3895 141.76 56.3832C141.757 56.377 141.755 56.3699 141.755 56.3627C141.755 56.3555 141.757 56.3484 141.76 56.3422C141.764 56.3359 141.769 56.3307 141.775 56.327Z" fill="white"/>
<path d="M141.966 56.3802C141.976 56.3656 141.991 56.3549 142.008 56.3495C142.025 56.3441 142.044 56.3445 142.061 56.3504C142.097 56.3504 142.103 56.3921 142.061 56.4219C142.046 56.4314 142.028 56.4364 142.01 56.4364C141.992 56.4364 141.975 56.4314 141.96 56.4219C141.948 56.4457 141.942 56.41 141.966 56.3802Z" fill="white"/>
<path d="M142.15 56.4394C142.163 56.4255 142.179 56.415 142.196 56.4088C142.214 56.4026 142.233 56.4008 142.251 56.4037C142.257 56.4074 142.263 56.4126 142.266 56.4189C142.27 56.4252 142.271 56.4322 142.271 56.4394C142.271 56.4466 142.27 56.4537 142.266 56.4599C142.263 56.4662 142.257 56.4714 142.251 56.4751C142.239 56.49 142.224 56.5012 142.206 56.5075C142.188 56.5138 142.169 56.515 142.15 56.5109C142.144 56.5071 142.139 56.5019 142.135 56.4957C142.132 56.4894 142.13 56.4823 142.13 56.4751C142.13 56.4679 142.132 56.4609 142.135 56.4546C142.139 56.4484 142.144 56.4431 142.15 56.4394Z" fill="white"/>
<path d="M142.341 56.4998C142.352 56.4844 142.368 56.4727 142.386 56.4664C142.404 56.46 142.423 56.4592 142.442 56.4641C142.477 56.4641 142.483 56.5058 142.442 56.5356C142.43 56.551 142.415 56.5627 142.397 56.569C142.379 56.5754 142.359 56.5762 142.341 56.5713C142.334 56.5676 142.329 56.5623 142.326 56.5561C142.322 56.5498 142.32 56.5427 142.32 56.5356C142.32 56.5284 142.322 56.5213 142.326 56.515C142.329 56.5088 142.334 56.5035 142.341 56.4998Z" fill="white"/>
<path d="M149.341 58.9343L148.573 58.6962L148.901 58.2676L149.669 58.4998L149.341 58.9343Z" fill="white"/>
<path d="M149.282 58.565L148.966 58.4697L148.865 58.6007L149.181 58.7019L149.282 58.565Z" fill="white"/>
<path d="M149.366 58.7372L149.324 58.7253L149.408 58.6182L149.449 58.6301L149.366 58.7372Z" fill="white"/>
<path d="M131.268 71.2091L131.202 71.1853L130.988 71.471L130.857 71.4294L130.964 71.2865L130.738 71.2151L130.631 71.3579L130.5 71.3222L130.714 71.0365L130.643 71.0186L131.173 70.8281L131.268 71.2091Z" fill="#EBEBEB"/>
<path d="M138.346 73.1437L137.59 72.9116L137.661 72.8223L138.417 73.0485L138.346 73.1437Z" fill="#EBEBEB"/>
<path d="M138.168 73.3821L137.418 73.1499L137.489 73.0547L138.239 73.2869L138.168 73.3821Z" fill="#EBEBEB"/>
<path d="M137.988 73.6204L137.238 73.3882L137.31 73.293L138.06 73.5251L137.988 73.6204Z" fill="#EBEBEB"/>
<path d="M134.668 72.2036L134.299 72.3405L134.239 72.0726L134.299 72.0488L134.352 72.275L134.65 72.156L134.668 72.2036Z" fill="#EBEBEB"/>
<path d="M134.292 72.8401C134.219 72.8521 134.145 72.8521 134.072 72.8401C133.985 72.8135 133.906 72.7674 133.84 72.7055C133.774 72.6436 133.723 72.5675 133.691 72.4829C133.664 72.3902 133.661 72.2925 133.681 72.1981C133.7 72.1038 133.743 72.0156 133.804 71.9412C133.912 71.8049 134.057 71.7027 134.222 71.6467C134.386 71.5908 134.564 71.5835 134.733 71.6257C134.819 71.6502 134.899 71.6955 134.964 71.7577C135.03 71.82 135.079 71.8973 135.108 71.9829C135.135 72.0751 135.139 72.1726 135.121 72.2669C135.102 72.3613 135.061 72.4497 135 72.5246C134.913 72.6261 134.804 72.707 134.681 72.7615C134.559 72.8161 134.426 72.8429 134.292 72.8401ZM134.5 72.1615C134.428 72.1678 134.359 72.197 134.304 72.2448C134.385 72.2423 134.462 72.213 134.524 72.1615H134.5Z" fill="#EBEBEB"/>
<path d="M144.049 58.1308C144.097 58.0725 144.16 58.0284 144.232 58.0032C144.303 57.9781 144.38 57.9728 144.454 57.9879C144.479 57.9941 144.503 58.0058 144.524 58.0222C144.545 58.0387 144.561 58.0595 144.573 58.0832C144.573 58.0832 144.573 58.1249 144.543 58.1308C144.513 58.1368 144.495 58.1308 144.49 58.1308C144.482 58.1142 144.47 58.0996 144.456 58.0883C144.441 58.0769 144.424 58.0691 144.406 58.0653C144.356 58.0476 144.301 58.0476 144.251 58.0653C144.204 58.0824 144.161 58.111 144.126 58.1487C144.113 58.1648 144.103 58.184 144.097 58.2047C144.092 58.2254 144.092 58.2469 144.097 58.2677C144.104 58.2876 144.116 58.3055 144.131 58.3199C144.147 58.3344 144.166 58.345 144.186 58.3511C144.229 58.363 144.274 58.363 144.317 58.3511H144.364C144.363 58.3617 144.358 58.3716 144.351 58.3791C144.343 58.3867 144.333 58.3915 144.323 58.3927C144.261 58.4106 144.195 58.4106 144.132 58.3927C144.107 58.3838 144.085 58.3692 144.066 58.3501C144.048 58.331 144.034 58.3078 144.026 58.2824C144.018 58.2571 144.016 58.2302 144.02 58.2039C144.024 58.1776 144.034 58.1526 144.049 58.1308Z" fill="white"/>
<path d="M144.418 58.4694L144.68 58.1242C144.69 58.1189 144.702 58.1162 144.713 58.1162C144.724 58.1162 144.736 58.1189 144.746 58.1242C144.749 58.1269 144.752 58.1305 144.755 58.1347C144.757 58.1388 144.758 58.1433 144.758 58.148C144.758 58.1526 144.757 58.1572 144.755 58.1613C144.752 58.1654 144.749 58.169 144.746 58.1718L144.639 58.3087L144.811 58.3623L144.918 58.2194C144.927 58.2142 144.938 58.2114 144.948 58.2114C144.959 58.2114 144.969 58.2142 144.978 58.2194C144.978 58.2194 145.008 58.2194 144.978 58.2611L144.716 58.6123C144.707 58.6175 144.697 58.6203 144.686 58.6203C144.676 58.6203 144.666 58.6175 144.656 58.6123C144.656 58.6123 144.627 58.6123 144.656 58.5647L144.764 58.4218L144.591 58.3682L144.484 58.5111C144.474 58.5163 144.463 58.519 144.451 58.519C144.44 58.519 144.429 58.5163 144.418 58.5111C144.418 58.5111 144.406 58.4932 144.418 58.4694Z" fill="white"/>
<path d="M145.139 58.6064L144.972 58.5588L144.883 58.6243C144.875 58.6285 144.867 58.6307 144.859 58.6307C144.85 58.6307 144.842 58.6285 144.835 58.6243C144.835 58.6243 144.835 58.5886 144.835 58.5707L145.246 58.2671C145.254 58.2629 145.263 58.2607 145.272 58.2607C145.282 58.2607 145.291 58.2629 145.299 58.2671C145.299 58.2671 145.299 58.2671 145.299 58.2969L145.186 58.6898C145.182 58.7002 145.174 58.7092 145.165 58.7155C145.155 58.7218 145.144 58.7253 145.133 58.7255C145.133 58.7255 145.133 58.7255 145.133 58.6957L145.139 58.6064ZM145.139 58.535L145.18 58.3862L145.031 58.4993L145.139 58.535Z" fill="white"/>
<path d="M145.734 58.4879L145.633 58.4521L145.395 58.7736C145.385 58.7793 145.373 58.7824 145.362 58.7824C145.35 58.7824 145.339 58.7793 145.329 58.7736V58.7319L145.567 58.4164L145.466 58.3807C145.466 58.3807 145.436 58.3807 145.466 58.339C145.475 58.3338 145.485 58.3311 145.496 58.3311C145.506 58.3311 145.517 58.3338 145.526 58.339L145.811 58.4283V58.47C145.802 58.481 145.79 58.4888 145.776 58.492C145.762 58.4952 145.747 58.4938 145.734 58.4879Z" fill="white"/>
<path d="M136.274 63.9523L142.751 65.9406L144.12 64.1309L137.638 62.1426L136.274 63.9523Z" fill="#455A64"/>
<path d="M143.353 66.125L142.752 65.9404L143.175 65.3809L143.353 66.125Z" fill="#455A64"/>
<path d="M143.49 64.3631L137.751 62.6011L137.775 62.5713L143.513 64.3274L143.49 64.3631Z" fill="white"/>
<path d="M142.156 64.1846L137.608 62.7916L137.632 62.7559L142.18 64.1488L142.156 64.1846Z" fill="white"/>
<path d="M142.596 64.774L137.328 63.1607L137.352 63.125L142.62 64.7442L142.596 64.774Z" fill="white"/>
<path d="M142.924 65.1074L137.191 63.3453L137.215 63.3096L142.954 65.0716L142.924 65.1074Z" fill="white"/>
<path d="M142.787 65.2919L137.049 63.5299L137.073 63.4941L142.811 65.2562L142.787 65.2919Z" fill="white"/>
<path d="M141.054 64.9883L136.905 63.7143L136.935 63.6846L141.084 64.9526L141.054 64.9883Z" fill="white"/>
<path d="M133.048 68.2208L139.531 70.2091L140.894 68.3994L134.417 66.4111L133.048 68.2208Z" fill="#455A64"/>
<path d="M140.132 70.3934L139.53 70.2089L139.947 69.6553L140.132 70.3934Z" fill="#455A64"/>
<path d="M140.263 68.6317L134.524 66.8696L134.548 66.8398L140.287 68.596L140.263 68.6317Z" fill="white"/>
<path d="M138.93 68.4531L134.382 67.0601L134.412 67.0244L138.96 68.4174L138.93 68.4531Z" fill="white"/>
<path d="M139.37 69.0425L134.107 67.4293L134.131 67.3936L139.394 69.0128L139.37 69.0425Z" fill="white"/>
<path d="M139.703 69.3759L133.965 67.6138L133.989 67.5781L139.727 69.3402L139.703 69.3759Z" fill="white"/>
<path d="M139.561 69.5605L133.822 67.7984L133.852 67.7627L139.591 69.5248L139.561 69.5605Z" fill="white"/>
<path d="M137.835 69.2568L133.686 67.9829L133.709 67.9531L137.859 69.2271L137.835 69.2568Z" fill="white"/>
<path d="M146.073 62.5241L139.597 60.5358L140.746 59.0059L147.228 60.9941L146.073 62.5241Z" fill="#B7682D"/>
<path d="M138.995 60.3506L139.596 60.5352L140.013 59.9756L138.995 60.3506Z" fill="#B7682D"/>
<path d="M145.662 60.9044L140.888 59.44L140.912 59.4043L145.692 60.8747L145.662 60.9044Z" fill="white"/>
<path d="M146.484 61.3867L140.745 59.6246L140.775 59.5889L146.508 61.3509L146.484 61.3867Z" fill="white"/>
<path d="M146.341 61.5711L140.608 59.8091L140.632 59.7793L146.371 61.5354L146.341 61.5711Z" fill="white"/>
<path d="M145.752 61.6188L140.466 59.9996L140.49 59.9639L145.776 61.5831L145.752 61.6188Z" fill="white"/>
<path d="M146.061 61.9403L140.328 60.1842L140.352 60.1484L146.091 61.9105L146.061 61.9403Z" fill="white"/>
<path d="M144.424 61.6665L140.186 60.3687L140.209 60.333L144.454 61.6367L144.424 61.6665Z" fill="white"/>
<path d="M145.031 63.8986L138.555 61.9104L139.406 60.7793L145.889 62.7676L145.031 63.8986Z" fill="#B7682D"/>
<path d="M137.953 61.7255L138.554 61.9101L138.971 61.3564L137.953 61.7255Z" fill="#B7682D"/>
<path d="M145.276 62.9705L139.549 61.2144L139.573 61.1787L145.299 62.9348L145.276 62.9705Z" fill="white"/>
<path d="M144.121 62.8456L139.406 61.399L139.436 61.3633L144.151 62.8098L144.121 62.8456Z" fill="white"/>
<path d="M144.454 63.173L139.269 61.5836L139.292 61.5479L144.483 63.1432L144.454 63.173Z" fill="white"/>
<path d="M143.126 62.9944L139.126 61.7681L139.156 61.7324L143.156 62.9647L143.126 62.9944Z" fill="white"/>
<path d="M141.817 68.1608L135.334 66.1725L136.542 64.5771L143.019 66.5654L141.817 68.1608Z" fill="#DBDBDB"/>
<path d="M134.738 65.9883L135.334 66.1729L135.756 65.6133L134.738 65.9883Z" fill="#DBDBDB"/>
<path d="M141.68 67.221L136.263 65.5601L136.292 65.5244L141.71 67.1912L141.68 67.221Z" fill="white"/>
<path d="M141.102 67.2736L136.125 65.7437L136.149 65.708L141.125 67.2379L141.102 67.2736Z" fill="white"/>
<path d="M141.65 66.7566L136.542 65.191L136.572 65.1553L141.673 66.7209L141.65 66.7566Z" fill="white"/>
<path d="M142.353 66.7447L136.686 65.0064L136.709 64.9707L142.377 66.709L142.353 66.7447Z" fill="white"/>
<path d="M141.138 67.5127L135.982 65.9292L136.012 65.8994L141.161 67.4769L141.138 67.5127Z" fill="white"/>
<path d="M138.775 72.1908L132.292 70.2025L133.298 68.875L139.775 70.8633L138.775 72.1908Z" fill="#B7682D"/>
<path d="M131.69 70.0186L132.292 70.2031L132.708 69.6436L131.69 70.0186Z" fill="#B7682D"/>
<path d="M139.179 71.0545L133.446 69.2925L133.47 69.2627L139.209 71.0188L139.179 71.0545Z" fill="white"/>
<path d="M139.042 71.2391L133.304 69.477L133.328 69.4473L139.066 71.2034L139.042 71.2391Z" fill="white"/>
<path d="M138.447 71.2868L133.161 69.6676L133.191 69.6318L138.471 71.251L138.447 71.2868Z" fill="white"/>
<path d="M138.763 71.6082L133.024 69.8521L133.048 69.8164L138.787 71.5785L138.763 71.6082Z" fill="white"/>
<path d="M137.126 71.3344L132.882 70.0367L132.912 70.001L137.15 71.3047L137.126 71.3344Z" fill="white"/>
<path d="M136.388 76.2635C134.072 76.3528 141.495 71.5011 141.549 68.8282C141.603 66.1554 139.049 67.0781 137.055 68.6139C130.143 73.9716 124.827 73.8228 121.375 78.847C117.922 83.8713 136.388 76.2635 136.388 76.2635Z" fill="#EB9481"/>
<path d="M129.303 73.209C127.801 73.62 126.356 74.2201 125.005 74.9949C123.803 75.7832 122.763 76.7934 121.939 77.9713C121.904 78.0249 121.975 78.0904 122.017 78.0368C123.862 75.6556 126.648 74.4234 129.321 73.2328C129.32 73.2278 129.318 73.223 129.315 73.2189C129.312 73.2148 129.308 73.2114 129.303 73.209Z" fill="#263238"/>
<path d="M103.271 83.6622C105.087 84.1087 117.558 80.3762 117.558 80.3762L125 97.3004C125 97.3004 103.247 102.896 98.1041 101.247C92.9608 99.5983 84.6266 82.4181 81.8228 72.3992C79.1856 62.9817 82.2633 56.7251 89.258 66.3808C89.2818 66.3808 102.325 83.4301 103.271 83.6622Z" fill="#B7682D"/>
<path d="M121.047 98.2413C119.643 98.5627 117.964 98.9437 116.148 99.3307L109.332 82.6624C110.963 82.2636 112.672 81.7992 114.094 81.4004C116.196 86.4604 118.744 92.6336 121.047 98.2413Z" fill="#EBEBEB"/>
<path d="M114.243 99.7172L112.665 100.033L105.867 83.418C106.343 83.3288 106.861 83.2216 107.397 83.1025C109.457 88.0792 111.963 94.1512 114.243 99.7172Z" fill="#EBEBEB"/>
<path d="M97.842 100.706C93.5142 98.6168 87.972 87.2765 86.9064 85.0501C86.2219 83.6273 85.5968 82.1748 84.9777 80.7223C83.7454 77.8053 82.5965 74.8586 81.5071 71.8941C81.5097 71.8877 81.5106 71.8809 81.5099 71.8741C81.5091 71.8674 81.5067 71.8609 81.5029 71.8552C81.4991 71.8496 81.494 71.845 81.488 71.8418C81.4819 71.8386 81.4752 71.8369 81.4684 71.8369C81.4616 71.8369 81.4549 71.8386 81.4489 71.8418C81.4429 71.845 81.4377 71.8496 81.4339 71.8552C81.4301 71.8609 81.4277 71.8674 81.427 71.8741C81.4263 71.8809 81.4272 71.8877 81.4297 71.8941C82.0449 74.1919 82.7731 76.458 83.6145 78.6923C83.0777 77.8648 82.5907 77.0061 82.156 76.1206C82.156 76.079 82.0607 76.1206 82.0786 76.1564C82.5227 77.213 83.0923 78.2123 83.7752 79.1328C84.6324 81.3771 85.5908 83.5797 86.6505 85.7228C86.9541 86.3181 93.3833 100.242 98.1932 101.433C99.866 101.849 105.545 101.308 106.748 101.004C106.795 101.004 106.807 100.927 106.748 100.927C105.111 100.95 99.4017 101.468 97.842 100.706Z" fill="#263238"/>
<path d="M120.237 95.3188C120.011 94.7235 119.785 94.1282 119.553 93.5686C119.089 92.4078 116.291 85.4905 115.1 83.3355C115.1 83.276 114.981 83.3355 114.999 83.3831C115.695 85.7643 118.648 92.5805 119.166 93.7056C119.416 94.3009 119.666 94.8545 119.928 95.426C120.19 95.9974 120.523 96.5511 120.773 97.1285C120.773 97.1821 120.892 97.1285 120.869 97.0928C120.63 96.5153 120.476 95.9022 120.237 95.3188Z" fill="#263238"/>
<path d="M117.57 80.4003C116.529 80.4718 107.183 82.8768 105.117 83.3768C104.627 83.5542 104.108 83.6389 103.587 83.6268C103.077 83.4874 102.634 83.1708 102.337 82.7339C101.646 81.9779 94.0682 72.4353 93.5205 71.971C93.3181 71.7924 93.1574 71.7626 93.3539 72.0662C93.6932 72.5841 101.063 82.0076 101.73 82.7815C102.396 83.5554 102.92 84.1924 103.95 84.1269C104.391 84.0971 117.005 80.9599 117.642 80.6861C117.749 80.6325 117.731 80.3884 117.57 80.4003Z" fill="#263238"/>
<path d="M92.8538 64.5118C90.9726 64.8571 86.1686 62.6485 84.978 59.928C84.8947 59.7375 85.3352 57.8921 85.7638 55.6181C86.0138 54.237 86.2638 52.6892 86.3591 51.2665C86.3591 50.9748 95.104 54.2429 95.104 54.2429C94.4363 55.9809 93.9845 57.7942 93.7586 59.6423C93.7372 59.8401 93.7372 60.0397 93.7586 60.2376C93.7616 60.2692 93.7616 60.3011 93.7586 60.3328C93.8955 61.4401 94.8778 64.1367 92.8538 64.5118Z" fill="#EB9481"/>
<path d="M93.8127 60.2134V60.3087C93.5068 60.3217 93.2004 60.3118 92.896 60.2789C87.6455 59.6836 86.8359 52.9865 86.7168 51.2959C88.2884 51.665 95.1462 54.2247 95.1462 54.2247C94.4786 55.9627 94.0267 57.776 93.8008 59.6241C93.7866 59.8205 93.7906 60.0177 93.8127 60.2134Z" fill="#263238"/>
<path d="M82.7815 41.9387C82.454 45.2486 85.9008 53.928 88.526 55.4936C92.324 57.7676 97.646 56.9878 99.3426 52.6302C100.992 48.4036 96.3006 37.1526 93.4551 35.837C89.2821 33.8725 83.2636 37.0454 82.7815 41.9387Z" fill="#EB9481"/>
<path d="M92.6516 45.5693C92.6516 45.5693 92.6159 45.617 92.6516 45.6348C92.8957 46.2301 93.0862 46.9207 92.6516 47.3255C93.235 47.01 92.979 46.1051 92.6516 45.5693Z" fill="#263238"/>
<path d="M91.8896 45.1592C90.9192 45.4569 91.586 47.3797 92.4849 47.0999C93.3838 46.8201 92.6992 44.9152 91.8896 45.1592Z" fill="#263238"/>
<path d="M96.1221 44.4688C96.1221 44.4688 96.1816 44.4687 96.1876 44.5045C96.378 45.0998 96.6936 45.7665 97.3008 45.7784C96.6162 45.9451 96.2054 45.07 96.1221 44.4688Z" fill="#263238"/>
<path d="M96.4256 43.6648C97.3602 43.26 98.0983 45.1531 97.2352 45.5281C96.372 45.9031 95.6576 44.0041 96.4256 43.6648Z" fill="#263238"/>
<path d="M90.8232 44.5455C91.0505 44.3846 91.2691 44.2117 91.478 44.0276C91.7321 43.8758 91.9304 43.6462 92.0436 43.3727C92.0599 43.2792 92.0455 43.1828 92.0026 43.0981C91.9597 43.0133 91.8905 42.9447 91.8054 42.9025C91.6244 42.8467 91.4317 42.8404 91.2474 42.8844C91.0632 42.9284 90.8941 43.021 90.7577 43.1525C90.4373 43.3736 90.212 43.7073 90.1267 44.0871C90.1105 44.1746 90.1205 44.265 90.1554 44.3468C90.1902 44.4287 90.2485 44.4985 90.3228 44.5474C90.3972 44.5963 90.4843 44.6222 90.5733 44.6219C90.6623 44.6216 90.7492 44.595 90.8232 44.5455Z" fill="#263238"/>
<path d="M96.8483 42.444C96.5625 42.4917 96.3006 42.4857 96.0149 42.5095C95.7244 42.5714 95.4217 42.538 95.1517 42.4143C95.0753 42.3589 95.0193 42.2799 94.9924 42.1895C94.9655 42.0991 94.9692 42.0023 95.0029 41.9142C95.0977 41.7488 95.2347 41.6114 95.3999 41.5163C95.5652 41.4211 95.7527 41.3715 95.9434 41.3725C96.3276 41.3209 96.7173 41.412 97.0388 41.6285C97.1094 41.682 97.163 41.7548 97.1931 41.8382C97.2232 41.9215 97.2285 42.0118 97.2083 42.0981C97.1882 42.1844 97.1434 42.263 97.0795 42.3244C97.0156 42.3858 96.9353 42.4273 96.8483 42.444Z" fill="#263238"/>
<path d="M94.0444 49.2785C94.2767 49.4609 94.544 49.5935 94.8297 49.6683C95.1154 49.7431 95.4135 49.7583 95.7053 49.713C95.9606 49.6753 96.2092 49.6011 96.4435 49.4928L96.5804 49.4273L96.6995 49.3618C96.7283 49.3443 96.7512 49.3184 96.765 49.2875C96.7788 49.2567 96.783 49.2224 96.7768 49.1892C96.7802 49.1695 96.7802 49.1494 96.7768 49.1297V49.082C96.634 48.6177 96.3482 47.9391 96.3482 47.9391C96.5447 47.9391 97.5388 48.0522 97.4317 47.8141C96.6605 45.7706 95.6852 43.8101 94.5207 41.9623C94.485 41.9028 94.3897 41.9623 94.4135 42.0159C95.116 43.9089 96.1458 45.665 96.878 47.5581C96.5266 47.5228 96.1719 47.5369 95.8244 47.5998C95.7648 47.6414 96.4197 48.9034 96.4197 49.1178C96.0576 49.2856 95.6655 49.379 95.2667 49.3923C94.8679 49.4056 94.4704 49.3385 94.098 49.1951C94.0028 49.1892 93.973 49.2428 94.0444 49.2785Z" fill="#263238"/>
<path d="M96.0743 49.356C95.9364 49.7694 95.6945 50.1405 95.3719 50.4335C95.1906 50.5875 94.9659 50.6811 94.7289 50.7014C94.211 50.743 94.0503 50.3085 94.0086 49.9096C93.9841 49.694 93.9841 49.4763 94.0086 49.2607C94.6691 49.5135 95.3934 49.5469 96.0743 49.356Z" fill="#263238"/>
<path d="M95.372 50.4331C95.1908 50.5871 94.966 50.6808 94.7291 50.701C94.2112 50.7427 94.0505 50.3081 94.0088 49.9093C94.2619 49.8328 94.5333 49.8428 94.7802 49.9376C95.027 50.0325 95.2352 50.2068 95.372 50.4331Z" fill="#FF9BBC"/>
<path d="M85.7935 49.9691C87.496 49.2667 85.347 44.5519 85.347 44.5519C86.0451 44.203 86.63 43.6631 87.0335 42.995C87.4371 42.327 87.6429 41.5581 87.627 40.7778C87.627 40.7778 94.9312 40.1825 95.9611 37.337C96.991 34.4915 94.9729 30.8542 94.074 30.9018C93.1751 30.9495 92.2881 32.5091 92.2881 32.5091C92.2881 32.5091 91.3416 31.3543 90.6035 31.4376C89.4664 31.5626 89.2879 33.0747 88.8176 33.5688C87.5317 34.8605 83.1027 36.2892 82.1443 37.5572C81.8697 37.8696 81.6766 38.245 81.5821 38.6501C81.4876 39.0551 81.4946 39.4772 81.6026 39.8789C81.2014 40.1424 80.8714 40.5008 80.6419 40.9224C80.4124 41.344 80.2905 41.8158 80.287 42.2958C80.1441 44.4448 84.079 50.6835 85.7935 49.9691Z" fill="#263238"/>
<path d="M85.9418 49.5578C87.186 47.772 85.9775 45.3372 84.7988 43.8073C84.7988 43.8073 84.7988 43.7597 84.8405 43.8073C86.0311 45.2062 87.4479 47.9744 86.0311 49.6412C86.02 49.653 86.0047 49.66 85.9885 49.6606C85.9724 49.6611 85.9566 49.6552 85.9448 49.6442C85.9329 49.6331 85.926 49.6178 85.9254 49.6016C85.9248 49.5854 85.9307 49.5697 85.9418 49.5578Z" fill="#263238"/>
<path d="M86.4365 40.5156C88.1083 40.7361 89.8037 40.706 91.4667 40.4263C92.2221 40.2681 92.9571 40.0244 93.6574 39.7C94.3539 39.3786 95.5921 38.8249 95.8659 38.0332C95.5886 38.66 95.0938 39.1654 94.473 39.456C93.6687 39.9499 92.7933 40.3174 91.8775 40.5453C90.0818 41.0121 88.2014 41.0488 86.3889 40.6525C86.3055 40.6406 86.3472 40.5096 86.4365 40.5156Z" fill="#263238"/>
<path d="M82.8586 36.4681C83.6698 35.995 84.5109 35.5755 85.3767 35.212C86.4363 34.6941 87.7222 34.1881 88.5615 33.3428H88.5913C88.0016 33.9461 87.3079 34.4381 86.5435 34.7953C85.7934 35.206 85.0255 35.587 84.2516 35.9502C83.3706 36.3669 82.4002 36.8431 81.8704 37.7361C81.3406 38.629 81.5192 39.5219 81.6323 40.4208C81.6323 40.4387 81.6261 40.4561 81.6148 40.4699C81.6034 40.4837 81.5876 40.4932 81.5701 40.4967C81.5526 40.5002 81.5343 40.4975 81.5185 40.4891C81.5028 40.4807 81.4904 40.4671 81.4835 40.4506C81.2293 39.729 81.2268 38.9427 81.4765 38.2195C81.7262 37.4964 82.2134 36.8791 82.8586 36.4681Z" fill="#263238"/>
<path d="M81.1977 40.3076C79.3284 41.6649 80.2809 44.4271 81.2393 46.0522C82.0774 47.6454 83.4016 48.9299 85.0194 49.7192C85.0968 49.749 85.0195 49.868 84.9599 49.8383C83.0193 49.0763 81.5906 47.219 80.6976 45.3974C80.0309 44.0223 79.2808 41.1232 81.1977 40.3076Z" fill="#263238"/>
<path d="M86.5491 48.9213C86.5491 48.9213 83.8763 46.4687 82.7214 47.4866C81.5665 48.5046 84.0191 52.3681 85.6979 52.6002C85.9105 52.645 86.1299 52.6463 86.3431 52.6041C86.5562 52.562 86.7586 52.4772 86.9382 52.3549C87.1177 52.2326 87.2707 52.0753 87.388 51.8924C87.5053 51.7095 87.5844 51.5048 87.6207 51.2906L86.5491 48.9213Z" fill="#EB9481"/>
<path d="M83.4541 48.5762V48.6179C84.6447 48.8203 85.4305 49.6954 86.0555 50.6538C85.9694 50.5589 85.8636 50.4839 85.7455 50.434C85.6274 50.3842 85.4999 50.3607 85.3718 50.3653C85.2437 50.3698 85.1181 50.4022 85.0039 50.4603C84.8896 50.5183 84.7894 50.6006 84.7102 50.7014C84.7102 50.7014 84.7102 50.7669 84.7518 50.755C84.928 50.6505 85.1326 50.604 85.3367 50.6221C85.5407 50.6403 85.7339 50.7222 85.8889 50.8562C86.1479 51.0776 86.3815 51.3272 86.5853 51.6003C86.6627 51.6896 86.8235 51.6003 86.7639 51.4932C86.4722 50.0823 84.9662 48.3857 83.4541 48.5762Z" fill="#263238"/>
<path d="M94.4491 59.9873H94.4193C95.0146 61.7018 96.2766 65.7021 93.574 66.1843C92.4475 66.2798 91.3178 66.0439 90.3237 65.5057C89.3004 65.0328 88.3305 64.4521 87.4305 63.7734C86.3897 63.0405 85.4102 62.2242 84.5017 61.3327C84.46 61.291 84.4124 61.3327 84.4481 61.3922C85.3708 62.2851 86.234 63.2495 87.2103 64.0532C88.1651 64.8381 89.2226 65.489 90.3534 65.9879C91.4045 66.5318 92.5973 66.7396 93.7704 66.5832C94.2727 66.4653 94.7176 66.1749 95.0277 65.7626C95.3377 65.3503 95.4932 64.8422 95.467 64.327C95.4414 62.8243 95.0943 61.3446 94.4491 59.9873Z" fill="#263238"/>
<path d="M148.49 244.714H245.309V204.073H148.49V244.714Z" fill="#263238"/>
<path d="M150.323 204.073C150.323 204.073 151.657 198.09 154.318 197.174C156.979 196.257 158.604 198.959 158.604 198.959C158.604 198.959 159.229 193.245 163.003 191.536C166.777 189.828 169.617 193.322 169.617 193.322C169.617 193.322 172.516 186.071 177.689 186.071C182.862 186.071 185.475 196.679 185.475 196.679C185.475 196.679 188.535 193.518 191.666 195.304C194.798 197.09 194.798 204.091 194.798 204.091L150.323 204.073Z" fill="#37474F"/>
<path d="M203.37 204.073H243.463C243.463 204.073 242.142 198.638 239.481 198.251C236.82 197.864 235.582 200.388 235.582 200.388C235.582 200.388 235.701 192.81 230.736 191.518C225.771 190.226 221.604 196.923 221.604 196.923C221.604 196.923 218.485 193.107 214.24 193.352C209.996 193.596 208.918 199.9 208.918 199.9C208.918 199.9 205.073 197.715 203.37 204.073Z" fill="#37474F"/>
<path d="M191.923 204.073H216.568C216.568 204.073 216.509 200.549 214.086 199.614C213.43 199.336 212.704 199.272 212.01 199.431C211.316 199.59 210.69 199.965 210.222 200.501C210.222 200.501 209.234 194.019 204.722 194.019C200.209 194.019 198.042 199.614 198.042 199.614C197.65 199.073 197.111 198.655 196.488 198.411C195.866 198.167 195.186 198.108 194.53 198.239C192.024 198.549 191.923 204.073 191.923 204.073Z" fill="#455A64"/>
<path d="M167.729 244.601H248.684V239.803H167.729V244.601Z" fill="#B7682D"/>
<path d="M167.729 238.647H248.684V233.849H167.729V238.647Z" fill="#B7682D"/>
<path d="M167.729 232.688H248.684V227.89H167.729V232.688Z" fill="#B7682D"/>
<path d="M167.729 226.736H248.684V221.938H167.729V226.736Z" fill="#B7682D"/>
<path d="M167.729 220.777H248.684V215.979H167.729V220.777Z" fill="#B7682D"/>
<path d="M167.729 214.824H248.684V210.026H167.729V214.824Z" fill="#B7682D"/>
<path d="M167.729 208.865H248.684V204.067H167.729V208.865Z" fill="#B7682D"/>
<path d="M145.115 244.601H167.73V239.803H145.115V244.601Z" fill="#B7682D"/>
<path opacity="0.2" d="M145.115 244.601H167.73V239.803H145.115V244.601Z" fill="#020100"/>
<path d="M145.115 238.647H167.73V233.849H145.115V238.647Z" fill="#B7682D"/>
<path opacity="0.2" d="M145.115 238.647H167.73V233.849H145.115V238.647Z" fill="#020100"/>
<path d="M145.115 232.688H167.73V227.89H145.115V232.688Z" fill="#B7682D"/>
<path opacity="0.2" d="M145.115 232.688H167.73V227.89H145.115V232.688Z" fill="#020100"/>
<path d="M145.115 226.736H167.73V221.938H145.115V226.736Z" fill="#B7682D"/>
<path opacity="0.2" d="M145.115 226.736H167.73V221.938H145.115V226.736Z" fill="#020100"/>
<path d="M145.115 220.777H167.73V215.979H145.115V220.777Z" fill="#B7682D"/>
<path opacity="0.2" d="M145.115 220.777H167.73V215.979H145.115V220.777Z" fill="#020100"/>
<path d="M145.115 214.824H167.73V210.026H145.115V214.824Z" fill="#B7682D"/>
<path opacity="0.2" d="M145.115 214.824H167.73V210.026H145.115V214.824Z" fill="#020100"/>
<path d="M145.115 208.865H167.73V204.067H145.115V208.865Z" fill="#B7682D"/>
<path opacity="0.2" d="M145.115 208.865H167.73V204.067H145.115V208.865Z" fill="#020100"/>
</svg>
