<svg width="19" height="18" viewBox="0 0 19 18" fill="none" xmlns="http://www.w3.org/2000/svg">
<g clip-path="url(#clip0_81_1206)">
<path d="M18.1037 9.19953C18.1145 8.58081 18.0494 7.96305 17.9096 7.35959H9.28735V10.6995H14.3485C14.2526 11.2852 14.0369 11.8457 13.7142 12.3475C13.3916 12.8493 12.9687 13.282 12.471 13.6195L12.4534 13.7313L15.1797 15.8011L15.3685 15.8196C17.1031 14.2496 18.1033 11.9395 18.1033 9.19953" fill="#4285F4"/>
<path d="M9.28733 18C11.7668 18 13.8485 17.1999 15.369 15.8199L12.471 13.6198C11.6956 14.15 10.6547 14.52 9.28733 14.52C8.12601 14.5133 6.99631 14.1485 6.05851 13.4771C5.12072 12.8058 4.42245 11.8621 4.06278 10.7799L3.95516 10.7889L1.1203 12.9389L1.08325 13.0399C1.84675 14.5311 3.01846 15.7847 4.46737 16.6607C5.91627 17.5367 7.58525 18.0004 9.28769 18" fill="#34A853"/>
<path d="M4.06285 10.7799C3.86198 10.2071 3.75833 9.60577 3.75602 9C3.75972 8.39523 3.85955 7.79471 4.05191 7.22006L4.0468 7.10075L1.17718 4.9162L1.08332 4.95995C0.439246 6.21312 0.10376 7.59676 0.10376 8.99992C0.10376 10.4031 0.439246 11.7867 1.08332 13.0399L4.06285 10.7799Z" fill="#FBBC05"/>
<path d="M9.28744 3.47998C10.6034 3.45996 11.8761 3.94024 12.8385 4.82004L15.4304 2.33999C13.768 0.811681 11.5666 -0.0268786 9.28744 -1.4795e-05C7.58503 -0.00041174 5.91606 0.463278 4.46716 1.3392C3.01825 2.21513 1.84653 3.46877 1.08301 4.95993L4.05266 7.22004C4.41587 6.13807 5.11645 5.1951 6.05563 4.52409C6.99481 3.85308 8.1252 3.48789 9.28744 3.47998Z" fill="#EB4335"/>
</g>
<defs>
<clipPath id="clip0_81_1206">
<rect width="18" height="18" fill="white" transform="translate(0.10376)"/>
</clipPath>
</defs>
</svg>
